<?xml version="1.0" encoding="utf-8" standalone="no"?>
<!DOCTYPE svg PUBLIC "-//W3C//DTD SVG 1.1//EN"
  "http://www.w3.org/Graphics/SVG/1.1/DTD/svg11.dtd">
<!-- Created with matplotlib (https://matplotlib.org/) -->
<svg height="576pt" version="1.1" viewBox="0 0 720 576" width="720pt" xmlns="http://www.w3.org/2000/svg" xmlns:xlink="http://www.w3.org/1999/xlink">
 <metadata>
  <rdf:RDF xmlns:cc="http://creativecommons.org/ns#" xmlns:dc="http://purl.org/dc/elements/1.1/" xmlns:rdf="http://www.w3.org/1999/02/22-rdf-syntax-ns#">
   <cc:Work>
    <dc:type rdf:resource="http://purl.org/dc/dcmitype/StillImage"/>
    <dc:date>2020-12-06T18:31:04.611826</dc:date>
    <dc:format>image/svg+xml</dc:format>
    <dc:creator>
     <cc:Agent>
      <dc:title>Matplotlib v3.3.2, https://matplotlib.org/</dc:title>
     </cc:Agent>
    </dc:creator>
   </cc:Work>
  </rdf:RDF>
 </metadata>
 <defs>
  <style type="text/css">*{stroke-linecap:butt;stroke-linejoin:round;}</style>
 </defs>
 <g id="figure_1">
  <g id="patch_1">
   <path d="M 0 576 
L 720 576 
L 720 0 
L 0 0 
z
" style="fill:none;"/>
  </g>
  <g id="axes_1">
   <g id="patch_2">
    <path d="M 90 504 
L 648 504 
L 648 69.12 
L 90 69.12 
z
" style="fill:#ffffff;"/>
   </g>
   <g id="PolyCollection_1">
    <defs>
     <path d="M 130.653657 -72.092527 
L 130.653657 -72 
L 132.85615 -72 
L 135.058644 -72 
L 137.261137 -72 
L 139.463631 -72 
L 141.666124 -72 
L 143.868618 -72 
L 146.071111 -72 
L 148.273605 -72 
L 150.476098 -72 
L 152.678592 -72 
L 154.881085 -72 
L 157.083579 -72 
L 159.286072 -72 
L 161.488566 -72 
L 163.691059 -72 
L 165.893553 -72 
L 168.096046 -72 
L 170.29854 -72 
L 172.501033 -72 
L 174.703527 -72 
L 176.90602 -72 
L 179.108514 -72 
L 181.311007 -72 
L 183.513501 -72 
L 185.715994 -72 
L 187.918488 -72 
L 190.120981 -72 
L 192.323475 -72 
L 194.525968 -72 
L 196.728462 -72 
L 198.930955 -72 
L 201.133449 -72 
L 203.335942 -72 
L 205.538436 -72 
L 207.740929 -72 
L 209.943423 -72 
L 212.145916 -72 
L 214.34841 -72 
L 216.550903 -72 
L 218.753397 -72 
L 220.95589 -72 
L 223.158384 -72 
L 225.360877 -72 
L 227.563371 -72 
L 229.765864 -72 
L 231.968358 -72 
L 234.170851 -72 
L 236.373345 -72 
L 238.575838 -72 
L 240.778332 -72 
L 242.980825 -72 
L 245.183319 -72 
L 247.385812 -72 
L 249.588306 -72 
L 251.790799 -72 
L 253.993293 -72 
L 256.195786 -72 
L 258.39828 -72 
L 260.600773 -72 
L 262.803267 -72 
L 265.00576 -72 
L 267.208254 -72 
L 269.410747 -72 
L 271.613241 -72 
L 273.815734 -72 
L 276.018228 -72 
L 278.220721 -72 
L 280.423215 -72 
L 282.625708 -72 
L 284.828202 -72 
L 287.030695 -72 
L 289.233189 -72 
L 291.435682 -72 
L 293.638176 -72 
L 295.840669 -72 
L 298.043163 -72 
L 300.245656 -72 
L 302.44815 -72 
L 304.650643 -72 
L 306.853137 -72 
L 309.05563 -72 
L 311.258124 -72 
L 313.460617 -72 
L 315.663111 -72 
L 317.865604 -72 
L 320.068098 -72 
L 322.270591 -72 
L 324.473085 -72 
L 326.675578 -72 
L 328.878072 -72 
L 331.080565 -72 
L 333.283059 -72 
L 335.485552 -72 
L 337.688046 -72 
L 339.890539 -72 
L 342.093033 -72 
L 344.295526 -72 
L 346.49802 -72 
L 348.700513 -72 
L 350.903007 -72 
L 353.1055 -72 
L 355.307994 -72 
L 357.510487 -72 
L 359.712981 -72 
L 361.915474 -72 
L 364.117968 -72 
L 366.320461 -72 
L 368.522955 -72 
L 370.725448 -72 
L 372.927942 -72 
L 375.130435 -72 
L 377.332929 -72 
L 379.535422 -72 
L 381.737916 -72 
L 383.940409 -72 
L 386.142903 -72 
L 388.345396 -72 
L 390.54789 -72 
L 392.750383 -72 
L 394.952877 -72 
L 397.15537 -72 
L 399.357864 -72 
L 401.560357 -72 
L 403.762851 -72 
L 405.965344 -72 
L 408.167838 -72 
L 410.370331 -72 
L 412.572825 -72 
L 414.775318 -72 
L 416.977812 -72 
L 419.180305 -72 
L 421.382799 -72 
L 423.585292 -72 
L 425.787786 -72 
L 427.990279 -72 
L 430.192773 -72 
L 432.395266 -72 
L 434.59776 -72 
L 436.800253 -72 
L 439.002747 -72 
L 441.20524 -72 
L 443.407734 -72 
L 445.610227 -72 
L 447.812721 -72 
L 450.015214 -72 
L 452.217708 -72 
L 454.420201 -72 
L 456.622695 -72 
L 458.825188 -72 
L 461.027682 -72 
L 463.230175 -72 
L 465.432669 -72 
L 467.635162 -72 
L 469.837656 -72 
L 472.040149 -72 
L 474.242643 -72 
L 476.445136 -72 
L 478.64763 -72 
L 480.850123 -72 
L 483.052617 -72 
L 485.25511 -72 
L 487.457604 -72 
L 489.660097 -72 
L 491.862591 -72 
L 494.065084 -72 
L 496.267578 -72 
L 498.470071 -72 
L 500.672565 -72 
L 502.875058 -72 
L 505.077552 -72 
L 507.280045 -72 
L 509.482539 -72 
L 511.685032 -72 
L 513.887526 -72 
L 516.090019 -72 
L 518.292513 -72 
L 520.495006 -72 
L 522.6975 -72 
L 524.899993 -72 
L 527.102487 -72 
L 529.30498 -72 
L 531.507474 -72 
L 533.709967 -72 
L 535.912461 -72 
L 538.114954 -72 
L 540.317448 -72 
L 542.519941 -72 
L 544.722435 -72 
L 546.924928 -72 
L 549.127422 -72 
L 551.329915 -72 
L 553.532409 -72 
L 555.734902 -72 
L 557.937396 -72 
L 560.139889 -72 
L 562.342383 -72 
L 564.544876 -72 
L 566.74737 -72 
L 568.949863 -72 
L 568.949863 -72.093001 
L 568.949863 -72.093001 
L 566.74737 -72.119446 
L 564.544876 -72.152481 
L 562.342383 -72.193477 
L 560.139889 -72.244017 
L 557.937396 -72.305909 
L 555.734902 -72.381204 
L 553.532409 -72.472199 
L 551.329915 -72.581441 
L 549.127422 -72.711722 
L 546.924928 -72.866069 
L 544.722435 -73.047719 
L 542.519941 -73.260094 
L 540.317448 -73.506755 
L 538.114954 -73.791355 
L 535.912461 -74.117578 
L 533.709967 -74.48907 
L 531.507474 -74.909362 
L 529.30498 -75.381791 
L 527.102487 -75.909412 
L 524.899993 -76.494923 
L 522.6975 -77.140576 
L 520.495006 -77.848116 
L 518.292513 -78.618718 
L 516.090019 -79.452947 
L 513.887526 -80.350733 
L 511.685032 -81.311372 
L 509.482539 -82.33355 
L 507.280045 -83.415388 
L 505.077552 -84.55452 
L 502.875058 -85.748186 
L 500.672565 -86.993349 
L 498.470071 -88.286831 
L 496.267578 -89.625453 
L 494.065084 -91.006186 
L 491.862591 -92.426293 
L 489.660097 -93.883468 
L 487.457604 -95.375947 
L 485.25511 -96.902608 
L 483.052617 -98.463028 
L 480.850123 -100.057508 
L 478.64763 -101.687064 
L 476.445136 -103.353367 
L 474.242643 -105.058657 
L 472.040149 -106.805605 
L 469.837656 -108.597157 
L 467.635162 -110.43634 
L 465.432669 -112.326061 
L 463.230175 -114.268895 
L 461.027682 -116.266879 
L 458.825188 -118.321318 
L 456.622695 -120.432623 
L 454.420201 -122.600182 
L 452.217708 -124.822276 
L 450.015214 -127.096051 
L 447.812721 -129.417537 
L 445.610227 -131.78174 
L 443.407734 -134.182773 
L 441.20524 -136.61405 
L 439.002747 -139.068517 
L 436.800253 -141.538913 
L 434.59776 -144.018057 
L 432.395266 -146.499125 
L 430.192773 -148.975918 
L 427.990279 -151.443102 
L 425.787786 -153.896391 
L 423.585292 -156.332671 
L 421.382799 -158.75005 
L 419.180305 -161.147822 
L 416.977812 -163.526341 
L 414.775318 -165.886821 
L 412.572825 -168.231038 
L 410.370331 -170.560985 
L 408.167838 -172.878459 
L 405.965344 -175.184634 
L 403.762851 -177.479619 
L 401.560357 -179.762047 
L 399.357864 -182.028709 
L 397.15537 -184.274268 
L 394.952877 -186.491069 
L 392.750383 -188.669073 
L 390.54789 -190.79592 
L 388.345396 -192.857129 
L 386.142903 -194.836442 
L 383.940409 -196.71629 
L 381.737916 -198.478376 
L 379.535422 -200.104342 
L 377.332929 -201.576498 
L 375.130435 -202.878581 
L 372.927942 -203.996497 
L 370.725448 -204.919017 
L 368.522955 -205.638401 
L 366.320461 -206.150897 
L 364.117968 -206.457109 
L 361.915474 -206.562204 
L 359.712981 -206.475948 
L 357.510487 -206.212571 
L 355.307994 -205.790455 
L 353.1055 -205.231665 
L 350.903007 -204.561352 
L 348.700513 -203.807021 
L 346.49802 -202.997731 
L 344.295526 -202.163237 
L 342.093033 -201.333105 
L 339.890539 -200.535851 
L 337.688046 -199.798118 
L 335.485552 -199.143928 
L 333.283059 -198.594029 
L 331.080565 -198.165357 
L 328.878072 -197.870629 
L 326.675578 -197.718072 
L 324.473085 -197.711289 
L 322.270591 -197.849264 
L 320.068098 -198.126491 
L 317.865604 -198.533224 
L 315.663111 -199.055827 
L 313.460617 -199.6772 
L 311.258124 -200.377284 
L 309.05563 -201.133592 
L 306.853137 -201.921781 
L 304.650643 -202.716217 
L 302.44815 -203.490536 
L 300.245656 -204.218177 
L 298.043163 -204.872878 
L 295.840669 -205.429125 
L 293.638176 -205.862545 
L 291.435682 -206.150256 
L 289.233189 -206.27115 
L 287.030695 -206.206128 
L 284.828202 -205.938295 
L 282.625708 -205.453103 
L 280.423215 -204.738463 
L 278.220721 -203.784828 
L 276.018228 -202.585249 
L 273.815734 -201.135414 
L 271.613241 -199.433663 
L 269.410747 -197.480992 
L 267.208254 -195.28103 
L 265.00576 -192.840005 
L 262.803267 -190.166677 
L 260.600773 -187.272245 
L 258.39828 -184.170223 
L 256.195786 -180.876276 
L 253.993293 -177.408024 
L 251.790799 -173.784801 
L 249.588306 -170.027383 
L 247.385812 -166.157683 
L 245.183319 -162.198414 
L 242.980825 -158.172742 
L 240.778332 -154.103925 
L 238.575838 -150.014961 
L 236.373345 -145.92824 
L 234.170851 -141.865227 
L 231.968358 -137.84618 
L 229.765864 -133.889904 
L 227.563371 -130.013557 
L 225.360877 -126.23251 
L 223.158384 -122.56025 
L 220.95589 -119.00835 
L 218.753397 -115.586469 
L 216.550903 -112.302412 
L 214.34841 -109.162211 
L 212.145916 -106.170242 
L 209.943423 -103.32936 
L 207.740929 -100.641043 
L 205.538436 -98.105543 
L 203.335942 -95.722033 
L 201.133449 -93.48875 
L 198.930955 -91.403119 
L 196.728462 -89.461875 
L 194.525968 -87.661162 
L 192.323475 -85.996622 
L 190.120981 -84.463472 
L 187.918488 -83.056566 
L 185.715994 -81.770456 
L 183.513501 -80.599441 
L 181.311007 -79.537613 
L 179.108514 -78.578903 
L 176.90602 -77.717126 
L 174.703527 -76.946027 
L 172.501033 -76.259325 
L 170.29854 -75.650761 
L 168.096046 -75.114147 
L 165.893553 -74.643409 
L 163.691059 -74.232637 
L 161.488566 -73.876121 
L 159.286072 -73.568396 
L 157.083579 -73.304271 
L 154.881085 -73.078858 
L 152.678592 -72.887595 
L 150.476098 -72.726257 
L 148.273605 -72.590968 
L 146.071111 -72.478203 
L 143.868618 -72.384778 
L 141.666124 -72.307849 
L 139.463631 -72.244892 
L 137.261137 -72.193688 
L 135.058644 -72.152301 
L 132.85615 -72.119059 
L 130.653657 -72.092527 
z
" id="m6af9961dae" style="stroke:#cc78bc;stroke-width:2;"/>
    </defs>
    <g clip-path="url(#pfbeb84a91b)">
     <use style="fill:#cc78bc;fill-opacity:0.25;stroke:#cc78bc;stroke-width:2;" x="0" xlink:href="#m6af9961dae" y="576"/>
    </g>
   </g>
   <g id="PolyCollection_2">
    <defs>
     <path d="M 115.363636 -72.21459 
L 115.363636 -72 
L 117.912746 -72 
L 120.461855 -72 
L 123.010964 -72 
L 125.560073 -72 
L 128.109182 -72 
L 130.658291 -72 
L 133.207401 -72 
L 135.75651 -72 
L 138.305619 -72 
L 140.854728 -72 
L 143.403837 -72 
L 145.952947 -72 
L 148.502056 -72 
L 151.051165 -72 
L 153.600274 -72 
L 156.149383 -72 
L 158.698492 -72 
L 161.247602 -72 
L 163.796711 -72 
L 166.34582 -72 
L 168.894929 -72 
L 171.444038 -72 
L 173.993148 -72 
L 176.542257 -72 
L 179.091366 -72 
L 181.640475 -72 
L 184.189584 -72 
L 186.738693 -72 
L 189.287803 -72 
L 191.836912 -72 
L 194.386021 -72 
L 196.93513 -72 
L 199.484239 -72 
L 202.033349 -72 
L 204.582458 -72 
L 207.131567 -72 
L 209.680676 -72 
L 212.229785 -72 
L 214.778894 -72 
L 217.328004 -72 
L 219.877113 -72 
L 222.426222 -72 
L 224.975331 -72 
L 227.52444 -72 
L 230.07355 -72 
L 232.622659 -72 
L 235.171768 -72 
L 237.720877 -72 
L 240.269986 -72 
L 242.819095 -72 
L 245.368205 -72 
L 247.917314 -72 
L 250.466423 -72 
L 253.015532 -72 
L 255.564641 -72 
L 258.113751 -72 
L 260.66286 -72 
L 263.211969 -72 
L 265.761078 -72 
L 268.310187 -72 
L 270.859296 -72 
L 273.408406 -72 
L 275.957515 -72 
L 278.506624 -72 
L 281.055733 -72 
L 283.604842 -72 
L 286.153952 -72 
L 288.703061 -72 
L 291.25217 -72 
L 293.801279 -72 
L 296.350388 -72 
L 298.899497 -72 
L 301.448607 -72 
L 303.997716 -72 
L 306.546825 -72 
L 309.095934 -72 
L 311.645043 -72 
L 314.194153 -72 
L 316.743262 -72 
L 319.292371 -72 
L 321.84148 -72 
L 324.390589 -72 
L 326.939698 -72 
L 329.488808 -72 
L 332.037917 -72 
L 334.587026 -72 
L 337.136135 -72 
L 339.685244 -72 
L 342.234354 -72 
L 344.783463 -72 
L 347.332572 -72 
L 349.881681 -72 
L 352.43079 -72 
L 354.979899 -72 
L 357.529009 -72 
L 360.078118 -72 
L 362.627227 -72 
L 365.176336 -72 
L 367.725445 -72 
L 370.274555 -72 
L 372.823664 -72 
L 375.372773 -72 
L 377.921882 -72 
L 380.470991 -72 
L 383.020101 -72 
L 385.56921 -72 
L 388.118319 -72 
L 390.667428 -72 
L 393.216537 -72 
L 395.765646 -72 
L 398.314756 -72 
L 400.863865 -72 
L 403.412974 -72 
L 405.962083 -72 
L 408.511192 -72 
L 411.060302 -72 
L 413.609411 -72 
L 416.15852 -72 
L 418.707629 -72 
L 421.256738 -72 
L 423.805847 -72 
L 426.354957 -72 
L 428.904066 -72 
L 431.453175 -72 
L 434.002284 -72 
L 436.551393 -72 
L 439.100503 -72 
L 441.649612 -72 
L 444.198721 -72 
L 446.74783 -72 
L 449.296939 -72 
L 451.846048 -72 
L 454.395158 -72 
L 456.944267 -72 
L 459.493376 -72 
L 462.042485 -72 
L 464.591594 -72 
L 467.140704 -72 
L 469.689813 -72 
L 472.238922 -72 
L 474.788031 -72 
L 477.33714 -72 
L 479.886249 -72 
L 482.435359 -72 
L 484.984468 -72 
L 487.533577 -72 
L 490.082686 -72 
L 492.631795 -72 
L 495.180905 -72 
L 497.730014 -72 
L 500.279123 -72 
L 502.828232 -72 
L 505.377341 -72 
L 507.92645 -72 
L 510.47556 -72 
L 513.024669 -72 
L 515.573778 -72 
L 518.122887 -72 
L 520.671996 -72 
L 523.221106 -72 
L 525.770215 -72 
L 528.319324 -72 
L 530.868433 -72 
L 533.417542 -72 
L 535.966651 -72 
L 538.515761 -72 
L 541.06487 -72 
L 543.613979 -72 
L 546.163088 -72 
L 548.712197 -72 
L 551.261307 -72 
L 553.810416 -72 
L 556.359525 -72 
L 558.908634 -72 
L 561.457743 -72 
L 564.006852 -72 
L 566.555962 -72 
L 569.105071 -72 
L 571.65418 -72 
L 574.203289 -72 
L 576.752398 -72 
L 579.301508 -72 
L 581.850617 -72 
L 584.399726 -72 
L 586.948835 -72 
L 589.497944 -72 
L 592.047053 -72 
L 594.596163 -72 
L 597.145272 -72 
L 599.694381 -72 
L 602.24349 -72 
L 604.792599 -72 
L 607.341709 -72 
L 609.890818 -72 
L 612.439927 -72 
L 614.989036 -72 
L 617.538145 -72 
L 620.087254 -72 
L 622.636364 -72 
L 622.636364 -72.0511 
L 622.636364 -72.0511 
L 620.087254 -72.066086 
L 617.538145 -72.084875 
L 614.989036 -72.108257 
L 612.439927 -72.137134 
L 609.890818 -72.172531 
L 607.341709 -72.215597 
L 604.792599 -72.267601 
L 602.24349 -72.329933 
L 599.694381 -72.40409 
L 597.145272 -72.491664 
L 594.596163 -72.594324 
L 592.047053 -72.713789 
L 589.497944 -72.8518 
L 586.948835 -73.010082 
L 584.399726 -73.190312 
L 581.850617 -73.39407 
L 579.301508 -73.622797 
L 576.752398 -73.877756 
L 574.203289 -74.159977 
L 571.65418 -74.470229 
L 569.105071 -74.808973 
L 566.555962 -75.176335 
L 564.006852 -75.572084 
L 561.457743 -75.995615 
L 558.908634 -76.445943 
L 556.359525 -76.921709 
L 553.810416 -77.421196 
L 551.261307 -77.942353 
L 548.712197 -78.482832 
L 546.163088 -79.040032 
L 543.613979 -79.611154 
L 541.06487 -80.193259 
L 538.515761 -80.783336 
L 535.966651 -81.378367 
L 533.417542 -81.975397 
L 530.868433 -82.571601 
L 528.319324 -83.164349 
L 525.770215 -83.751253 
L 523.221106 -84.330224 
L 520.671996 -84.899493 
L 518.122887 -85.457635 
L 515.573778 -86.003563 
L 513.024669 -86.536513 
L 510.47556 -87.056001 
L 507.92645 -87.561769 
L 505.377341 -88.053709 
L 502.828232 -88.531774 
L 500.279123 -88.995888 
L 497.730014 -89.445841 
L 495.180905 -89.881202 
L 492.631795 -90.301235 
L 490.082686 -90.704843 
L 487.533577 -91.090539 
L 484.984468 -91.456451 
L 482.435359 -91.800375 
L 479.886249 -92.119867 
L 477.33714 -92.412388 
L 474.788031 -92.675487 
L 472.238922 -92.907027 
L 469.689813 -93.105441 
L 467.140704 -93.270003 
L 464.591594 -93.401108 
L 462.042485 -93.500538 
L 459.493376 -93.5717 
L 456.944267 -93.619823 
L 454.395158 -93.652087 
L 451.846048 -93.677689 
L 449.296939 -93.707813 
L 446.74783 -93.75552 
L 444.198721 -93.835535 
L 441.649612 -93.963947 
L 439.100503 -94.157826 
L 436.551393 -94.434761 
L 434.002284 -94.812346 
L 431.453175 -95.307621 
L 428.904066 -95.936506 
L 426.354957 -96.713227 
L 423.805847 -97.649786 
L 421.256738 -98.755472 
L 418.707629 -100.036452 
L 416.15852 -101.49546 
L 413.609411 -103.131578 
L 411.060302 -104.940156 
L 408.511192 -106.912841 
L 405.962083 -109.037742 
L 403.412974 -111.299709 
L 400.863865 -113.68073 
L 398.314756 -116.160422 
L 395.765646 -118.716612 
L 393.216537 -121.325966 
L 390.667428 -123.964672 
L 388.118319 -126.609121 
L 385.56921 -129.236598 
L 383.020101 -131.825929 
L 380.470991 -134.358085 
L 377.921882 -136.816717 
L 375.372773 -139.188603 
L 372.823664 -141.464015 
L 370.274555 -143.636976 
L 367.725445 -145.705419 
L 365.176336 -147.671244 
L 362.627227 -149.540281 
L 360.078118 -151.322149 
L 357.529009 -153.030039 
L 354.979899 -154.680414 
L 352.43079 -156.292632 
L 349.881681 -157.888516 
L 347.332572 -159.491855 
L 344.783463 -161.12787 
L 342.234354 -162.822618 
L 339.685244 -164.602379 
L 337.136135 -166.492996 
L 334.587026 -168.519204 
L 332.037917 -170.703947 
L 329.488808 -173.067683 
L 326.939698 -175.627721 
L 324.390589 -178.397567 
L 321.84148 -181.386333 
L 319.292371 -184.598198 
L 316.743262 -188.031966 
L 314.194153 -191.680717 
L 311.645043 -195.531584 
L 309.095934 -199.565665 
L 306.546825 -203.758085 
L 303.997716 -208.078203 
L 301.448607 -212.489978 
L 298.899497 -216.952489 
L 296.350388 -221.420584 
L 293.801279 -225.845663 
L 291.25217 -230.176557 
L 288.703061 -234.360492 
L 286.153952 -238.344099 
L 283.604842 -242.074453 
L 281.055733 -245.500102 
L 278.506624 -248.572061 
L 275.957515 -251.244749 
L 273.408406 -253.476836 
L 270.859296 -255.231985 
L 268.310187 -256.479477 
L 265.761078 -257.194696 
L 263.211969 -257.359478 
L 260.66286 -256.962314 
L 258.113751 -255.998415 
L 255.564641 -254.469638 
L 253.015532 -252.384289 
L 250.466423 -249.756811 
L 247.917314 -246.607377 
L 245.368205 -242.961394 
L 242.819095 -238.848948 
L 240.269986 -234.304206 
L 237.720877 -229.364778 
L 235.171768 -224.071077 
L 232.622659 -218.465675 
L 230.07355 -212.592677 
L 227.52444 -206.497117 
L 224.975331 -200.22439 
L 222.426222 -193.819723 
L 219.877113 -187.327687 
L 217.328004 -180.791752 
L 214.778894 -174.253888 
L 212.229785 -167.754204 
L 209.680676 -161.330629 
L 207.131567 -155.018633 
L 204.582458 -148.850977 
L 202.033349 -142.857502 
L 199.484239 -137.064954 
L 196.93513 -131.496838 
L 194.386021 -126.173309 
L 191.836912 -121.111104 
L 189.287803 -116.323509 
L 186.738693 -111.820369 
L 184.189584 -107.608147 
L 181.640475 -103.690018 
L 179.091366 -100.066015 
L 176.542257 -96.733215 
L 173.993148 -93.685969 
L 171.444038 -90.916164 
L 168.894929 -88.413515 
L 166.34582 -86.165883 
L 163.796711 -84.159607 
L 161.247602 -82.37984 
L 158.698492 -80.810888 
L 156.149383 -79.436532 
L 153.600274 -78.240339 
L 151.051165 -77.205944 
L 148.502056 -76.3173 
L 145.952947 -75.558899 
L 143.403837 -74.915953 
L 140.854728 -74.374534 
L 138.305619 -73.921688 
L 135.75651 -73.545498 
L 133.207401 -73.235125 
L 130.658291 -72.980815 
L 128.109182 -72.773883 
L 125.560073 -72.606673 
L 123.010964 -72.472505 
L 120.461855 -72.365604 
L 117.912746 -72.281029 
L 115.363636 -72.21459 
z
" id="m83948e0994" style="stroke:#de8f05;stroke-width:2;"/>
    </defs>
    <g clip-path="url(#pfbeb84a91b)">
     <use style="fill:#de8f05;fill-opacity:0.25;stroke:#de8f05;stroke-width:2;" x="0" xlink:href="#m83948e0994" y="576"/>
    </g>
   </g>
   <g id="PolyCollection_3">
    <defs>
     <path d="M 147.640409 -72.257964 
L 147.640409 -72 
L 148.590015 -72 
L 149.53962 -72 
L 150.489225 -72 
L 151.438831 -72 
L 152.388436 -72 
L 153.338042 -72 
L 154.287647 -72 
L 155.237252 -72 
L 156.186858 -72 
L 157.136463 -72 
L 158.086068 -72 
L 159.035674 -72 
L 159.985279 -72 
L 160.934884 -72 
L 161.88449 -72 
L 162.834095 -72 
L 163.783701 -72 
L 164.733306 -72 
L 165.682911 -72 
L 166.632517 -72 
L 167.582122 -72 
L 168.531727 -72 
L 169.481333 -72 
L 170.430938 -72 
L 171.380544 -72 
L 172.330149 -72 
L 173.279754 -72 
L 174.22936 -72 
L 175.178965 -72 
L 176.12857 -72 
L 177.078176 -72 
L 178.027781 -72 
L 178.977386 -72 
L 179.926992 -72 
L 180.876597 -72 
L 181.826203 -72 
L 182.775808 -72 
L 183.725413 -72 
L 184.675019 -72 
L 185.624624 -72 
L 186.574229 -72 
L 187.523835 -72 
L 188.47344 -72 
L 189.423046 -72 
L 190.372651 -72 
L 191.322256 -72 
L 192.271862 -72 
L 193.221467 -72 
L 194.171072 -72 
L 195.120678 -72 
L 196.070283 -72 
L 197.019889 -72 
L 197.969494 -72 
L 198.919099 -72 
L 199.868705 -72 
L 200.81831 -72 
L 201.767915 -72 
L 202.717521 -72 
L 203.667126 -72 
L 204.616731 -72 
L 205.566337 -72 
L 206.515942 -72 
L 207.465548 -72 
L 208.415153 -72 
L 209.364758 -72 
L 210.314364 -72 
L 211.263969 -72 
L 212.213574 -72 
L 213.16318 -72 
L 214.112785 -72 
L 215.062391 -72 
L 216.011996 -72 
L 216.961601 -72 
L 217.911207 -72 
L 218.860812 -72 
L 219.810417 -72 
L 220.760023 -72 
L 221.709628 -72 
L 222.659233 -72 
L 223.608839 -72 
L 224.558444 -72 
L 225.50805 -72 
L 226.457655 -72 
L 227.40726 -72 
L 228.356866 -72 
L 229.306471 -72 
L 230.256076 -72 
L 231.205682 -72 
L 232.155287 -72 
L 233.104893 -72 
L 234.054498 -72 
L 235.004103 -72 
L 235.953709 -72 
L 236.903314 -72 
L 237.852919 -72 
L 238.802525 -72 
L 239.75213 -72 
L 240.701736 -72 
L 241.651341 -72 
L 242.600946 -72 
L 243.550552 -72 
L 244.500157 -72 
L 245.449762 -72 
L 246.399368 -72 
L 247.348973 -72 
L 248.298578 -72 
L 249.248184 -72 
L 250.197789 -72 
L 251.147395 -72 
L 252.097 -72 
L 253.046605 -72 
L 253.996211 -72 
L 254.945816 -72 
L 255.895421 -72 
L 256.845027 -72 
L 257.794632 -72 
L 258.744238 -72 
L 259.693843 -72 
L 260.643448 -72 
L 261.593054 -72 
L 262.542659 -72 
L 263.492264 -72 
L 264.44187 -72 
L 265.391475 -72 
L 266.34108 -72 
L 267.290686 -72 
L 268.240291 -72 
L 269.189897 -72 
L 270.139502 -72 
L 271.089107 -72 
L 272.038713 -72 
L 272.988318 -72 
L 273.937923 -72 
L 274.887529 -72 
L 275.837134 -72 
L 276.78674 -72 
L 277.736345 -72 
L 278.68595 -72 
L 279.635556 -72 
L 280.585161 -72 
L 281.534766 -72 
L 282.484372 -72 
L 283.433977 -72 
L 284.383583 -72 
L 285.333188 -72 
L 286.282793 -72 
L 287.232399 -72 
L 288.182004 -72 
L 289.131609 -72 
L 290.081215 -72 
L 291.03082 -72 
L 291.980425 -72 
L 292.930031 -72 
L 293.879636 -72 
L 294.829242 -72 
L 295.778847 -72 
L 296.728452 -72 
L 297.678058 -72 
L 298.627663 -72 
L 299.577268 -72 
L 300.526874 -72 
L 301.476479 -72 
L 302.426085 -72 
L 303.37569 -72 
L 304.325295 -72 
L 305.274901 -72 
L 306.224506 -72 
L 307.174111 -72 
L 308.123717 -72 
L 309.073322 -72 
L 310.022927 -72 
L 310.972533 -72 
L 311.922138 -72 
L 312.871744 -72 
L 313.821349 -72 
L 314.770954 -72 
L 315.72056 -72 
L 316.670165 -72 
L 317.61977 -72 
L 318.569376 -72 
L 319.518981 -72 
L 320.468587 -72 
L 321.418192 -72 
L 322.367797 -72 
L 323.317403 -72 
L 324.267008 -72 
L 325.216613 -72 
L 326.166219 -72 
L 327.115824 -72 
L 328.06543 -72 
L 329.015035 -72 
L 329.96464 -72 
L 330.914246 -72 
L 331.863851 -72 
L 332.813456 -72 
L 333.763062 -72 
L 334.712667 -72 
L 335.662272 -72 
L 336.611878 -72 
L 336.611878 -72.140773 
L 336.611878 -72.140773 
L 335.662272 -72.180137 
L 334.712667 -72.22916 
L 333.763062 -72.289827 
L 332.813456 -72.364439 
L 331.863851 -72.455634 
L 330.914246 -72.566415 
L 329.96464 -72.700169 
L 329.015035 -72.860688 
L 328.06543 -73.052176 
L 327.115824 -73.279258 
L 326.166219 -73.546974 
L 325.216613 -73.860772 
L 324.267008 -74.226485 
L 323.317403 -74.650305 
L 322.367797 -75.138739 
L 321.418192 -75.698567 
L 320.468587 -76.336779 
L 319.518981 -77.060514 
L 318.569376 -77.876985 
L 317.61977 -78.793401 
L 316.670165 -79.816882 
L 315.72056 -80.954376 
L 314.770954 -82.212566 
L 313.821349 -83.597788 
L 312.871744 -85.11594 
L 311.922138 -86.772401 
L 310.972533 -88.571955 
L 310.022927 -90.518716 
L 309.073322 -92.616066 
L 308.123717 -94.866602 
L 307.174111 -97.272089 
L 306.224506 -99.833431 
L 305.274901 -102.550648 
L 304.325295 -105.422876 
L 303.37569 -108.448373 
L 302.426085 -111.624543 
L 301.476479 -114.947979 
L 300.526874 -118.414513 
L 299.577268 -122.019282 
L 298.627663 -125.756803 
L 297.678058 -129.621056 
L 296.728452 -133.605564 
L 295.778847 -137.703472 
L 294.829242 -141.907624 
L 293.879636 -146.210612 
L 292.930031 -150.60482 
L 291.980425 -155.082436 
L 291.03082 -159.635442 
L 290.081215 -164.255571 
L 289.131609 -168.934249 
L 288.182004 -173.662498 
L 287.232399 -178.430836 
L 286.282793 -183.229162 
L 285.333188 -188.046642 
L 284.383583 -192.87161 
L 283.433977 -197.691493 
L 282.484372 -202.492773 
L 281.534766 -207.260997 
L 280.585161 -211.980846 
L 279.635556 -216.636261 
L 278.68595 -221.210641 
L 277.736345 -225.687097 
L 276.78674 -230.048774 
L 275.837134 -234.279213 
L 274.887529 -238.362754 
L 273.937923 -242.284965 
L 272.988318 -246.033075 
L 272.038713 -249.596395 
L 271.089107 -252.966715 
L 270.139502 -256.138667 
L 269.189897 -259.110026 
L 268.240291 -261.881959 
L 267.290686 -264.459201 
L 266.34108 -266.850159 
L 265.391475 -269.066953 
L 264.44187 -271.125375 
L 263.492264 -273.044787 
L 262.542659 -274.84795 
L 261.593054 -276.560791 
L 260.643448 -278.212108 
L 259.693843 -279.833215 
L 258.744238 -281.457526 
L 257.794632 -283.12008 
L 256.845027 -284.856998 
L 255.895421 -286.704887 
L 254.945816 -288.700174 
L 253.996211 -290.878388 
L 253.046605 -293.273392 
L 252.097 -295.916572 
L 251.147395 -298.836012 
L 250.197789 -302.055663 
L 249.248184 -305.594529 
L 248.298578 -309.46592 
L 247.348973 -313.676772 
L 246.399368 -318.227087 
L 245.449762 -323.109516 
L 244.500157 -328.309115 
L 243.550552 -333.803283 
L 242.600946 -339.561927 
L 241.651341 -345.547825 
L 240.701736 -351.71722 
L 239.75213 -358.020613 
L 238.802525 -364.403743 
L 237.852919 -370.808732 
L 236.903314 -377.175347 
L 235.953709 -383.442346 
L 235.004103 -389.548857 
L 234.054498 -395.435753 
L 233.104893 -401.046953 
L 232.155287 -406.330626 
L 231.205682 -411.240245 
L 230.256076 -415.735458 
L 229.306471 -419.782751 
L 228.356866 -423.355879 
L 227.40726 -426.436067 
L 226.457655 -429.01197 
L 225.50805 -431.079404 
L 224.558444 -432.640876 
L 223.608839 -433.70492 
L 222.659233 -434.285285 
L 221.709628 -434.4 
L 220.760023 -434.070364 
L 219.810417 -433.319882 
L 218.860812 -432.173207 
L 217.911207 -430.655104 
L 216.961601 -428.789486 
L 216.011996 -426.598542 
L 215.062391 -424.101982 
L 214.112785 -421.316427 
L 213.16318 -418.254956 
L 212.213574 -414.926813 
L 211.263969 -411.337293 
L 210.314364 -407.48779 
L 209.364758 -403.376019 
L 208.415153 -398.996388 
L 207.465548 -394.340514 
L 206.515942 -389.397859 
L 205.566337 -384.156469 
L 204.616731 -378.60379 
L 203.667126 -372.72753 
L 202.717521 -366.516543 
L 201.767915 -359.961698 
L 200.81831 -353.056712 
L 199.868705 -345.798909 
L 198.919099 -338.189881 
L 197.969494 -330.23603 
L 197.019889 -321.948961 
L 196.070283 -313.345723 
L 195.120678 -304.448878 
L 194.171072 -295.286395 
L 193.221467 -285.891382 
L 192.271862 -276.301648 
L 191.322256 -266.559125 
L 190.372651 -256.70916 
L 189.423046 -246.799707 
L 188.47344 -236.880446 
L 187.523835 -227.001855 
L 186.574229 -217.214278 
L 185.624624 -207.566999 
L 184.675019 -198.107367 
L 183.725413 -188.879998 
L 182.775808 -179.926059 
L 181.826203 -171.282667 
L 180.876597 -162.982411 
L 179.926992 -155.052997 
L 178.977386 -147.517027 
L 178.027781 -140.391903 
L 177.078176 -133.68985 
L 176.12857 -127.418054 
L 175.178965 -121.578889 
L 174.22936 -116.170233 
L 173.279754 -111.185849 
L 172.330149 -106.615811 
L 171.380544 -102.446974 
L 170.430938 -98.663455 
L 169.481333 -95.247122 
L 168.531727 -92.178078 
L 167.582122 -89.435127 
L 166.632517 -86.996211 
L 165.682911 -84.83882 
L 164.733306 -82.940354 
L 163.783701 -81.278454 
L 162.834095 -79.831282 
L 161.88449 -78.577758 
L 160.934884 -77.497756 
L 159.985279 -76.572254 
L 159.035674 -75.783443 
L 158.086068 -75.114807 
L 157.136463 -74.551156 
L 156.186858 -74.078647 
L 155.237252 -73.684759 
L 154.287647 -73.358266 
L 153.338042 -73.089177 
L 152.388436 -72.868672 
L 151.438831 -72.689026 
L 150.489225 -72.543521 
L 149.53962 -72.42636 
L 148.590015 -72.332581 
L 147.640409 -72.257964 
z
" id="mf782876cc8" style="stroke:#029e73;stroke-width:2;"/>
    </defs>
    <g clip-path="url(#pfbeb84a91b)">
     <use style="fill:#029e73;fill-opacity:0.25;stroke:#029e73;stroke-width:2;" x="0" xlink:href="#mf782876cc8" y="576"/>
    </g>
   </g>
   <g id="matplotlib.axis_1">
    <g id="xtick_1">
     <g id="line2d_1">
      <defs>
       <path d="M 0 0 
L 0 3.5 
" id="m10352ed779" style="stroke:#000000;stroke-width:0.8;"/>
      </defs>
      <g>
       <use style="stroke:#000000;stroke-width:0.8;" x="175.891569" xlink:href="#m10352ed779" y="504"/>
      </g>
     </g>
     <g id="text_1">
      <!-- 0.00 -->
      <g transform="translate(153.625944 526.196875)scale(0.2 -0.2)">
       <defs>
        <path d="M 31.78125 66.40625 
Q 24.171875 66.40625 20.328125 58.90625 
Q 16.5 51.421875 16.5 36.375 
Q 16.5 21.390625 20.328125 13.890625 
Q 24.171875 6.390625 31.78125 6.390625 
Q 39.453125 6.390625 43.28125 13.890625 
Q 47.125 21.390625 47.125 36.375 
Q 47.125 51.421875 43.28125 58.90625 
Q 39.453125 66.40625 31.78125 66.40625 
z
M 31.78125 74.21875 
Q 44.046875 74.21875 50.515625 64.515625 
Q 56.984375 54.828125 56.984375 36.375 
Q 56.984375 17.96875 50.515625 8.265625 
Q 44.046875 -1.421875 31.78125 -1.421875 
Q 19.53125 -1.421875 13.0625 8.265625 
Q 6.59375 17.96875 6.59375 36.375 
Q 6.59375 54.828125 13.0625 64.515625 
Q 19.53125 74.21875 31.78125 74.21875 
z
" id="DejaVuSans-48"/>
        <path d="M 10.6875 12.40625 
L 21 12.40625 
L 21 0 
L 10.6875 0 
z
" id="DejaVuSans-46"/>
       </defs>
       <use xlink:href="#DejaVuSans-48"/>
       <use x="63.623047" xlink:href="#DejaVuSans-46"/>
       <use x="95.410156" xlink:href="#DejaVuSans-48"/>
       <use x="159.033203" xlink:href="#DejaVuSans-48"/>
      </g>
     </g>
    </g>
    <g id="xtick_2">
     <g id="line2d_2">
      <g>
       <use style="stroke:#000000;stroke-width:0.8;" x="278.881661" xlink:href="#m10352ed779" y="504"/>
      </g>
     </g>
     <g id="text_2">
      <!-- 0.01 -->
      <g transform="translate(256.616036 526.196875)scale(0.2 -0.2)">
       <defs>
        <path d="M 12.40625 8.296875 
L 28.515625 8.296875 
L 28.515625 63.921875 
L 10.984375 60.40625 
L 10.984375 69.390625 
L 28.421875 72.90625 
L 38.28125 72.90625 
L 38.28125 8.296875 
L 54.390625 8.296875 
L 54.390625 0 
L 12.40625 0 
z
" id="DejaVuSans-49"/>
       </defs>
       <use xlink:href="#DejaVuSans-48"/>
       <use x="63.623047" xlink:href="#DejaVuSans-46"/>
       <use x="95.410156" xlink:href="#DejaVuSans-48"/>
       <use x="159.033203" xlink:href="#DejaVuSans-49"/>
      </g>
     </g>
    </g>
    <g id="xtick_3">
     <g id="line2d_3">
      <g>
       <use style="stroke:#000000;stroke-width:0.8;" x="381.871753" xlink:href="#m10352ed779" y="504"/>
      </g>
     </g>
     <g id="text_3">
      <!-- 0.02 -->
      <g transform="translate(359.606128 526.196875)scale(0.2 -0.2)">
       <defs>
        <path d="M 19.1875 8.296875 
L 53.609375 8.296875 
L 53.609375 0 
L 7.328125 0 
L 7.328125 8.296875 
Q 12.9375 14.109375 22.625 23.890625 
Q 32.328125 33.6875 34.8125 36.53125 
Q 39.546875 41.84375 41.421875 45.53125 
Q 43.3125 49.21875 43.3125 52.78125 
Q 43.3125 58.59375 39.234375 62.25 
Q 35.15625 65.921875 28.609375 65.921875 
Q 23.96875 65.921875 18.8125 64.3125 
Q 13.671875 62.703125 7.8125 59.421875 
L 7.8125 69.390625 
Q 13.765625 71.78125 18.9375 73 
Q 24.125 74.21875 28.421875 74.21875 
Q 39.75 74.21875 46.484375 68.546875 
Q 53.21875 62.890625 53.21875 53.421875 
Q 53.21875 48.921875 51.53125 44.890625 
Q 49.859375 40.875 45.40625 35.40625 
Q 44.1875 33.984375 37.640625 27.21875 
Q 31.109375 20.453125 19.1875 8.296875 
z
" id="DejaVuSans-50"/>
       </defs>
       <use xlink:href="#DejaVuSans-48"/>
       <use x="63.623047" xlink:href="#DejaVuSans-46"/>
       <use x="95.410156" xlink:href="#DejaVuSans-48"/>
       <use x="159.033203" xlink:href="#DejaVuSans-50"/>
      </g>
     </g>
    </g>
    <g id="xtick_4">
     <g id="line2d_4">
      <g>
       <use style="stroke:#000000;stroke-width:0.8;" x="484.861844" xlink:href="#m10352ed779" y="504"/>
      </g>
     </g>
     <g id="text_4">
      <!-- 0.03 -->
      <g transform="translate(462.596219 526.196875)scale(0.2 -0.2)">
       <defs>
        <path d="M 40.578125 39.3125 
Q 47.65625 37.796875 51.625 33 
Q 55.609375 28.21875 55.609375 21.1875 
Q 55.609375 10.40625 48.1875 4.484375 
Q 40.765625 -1.421875 27.09375 -1.421875 
Q 22.515625 -1.421875 17.65625 -0.515625 
Q 12.796875 0.390625 7.625 2.203125 
L 7.625 11.71875 
Q 11.71875 9.328125 16.59375 8.109375 
Q 21.484375 6.890625 26.8125 6.890625 
Q 36.078125 6.890625 40.9375 10.546875 
Q 45.796875 14.203125 45.796875 21.1875 
Q 45.796875 27.640625 41.28125 31.265625 
Q 36.765625 34.90625 28.71875 34.90625 
L 20.21875 34.90625 
L 20.21875 43.015625 
L 29.109375 43.015625 
Q 36.375 43.015625 40.234375 45.921875 
Q 44.09375 48.828125 44.09375 54.296875 
Q 44.09375 59.90625 40.109375 62.90625 
Q 36.140625 65.921875 28.71875 65.921875 
Q 24.65625 65.921875 20.015625 65.03125 
Q 15.375 64.15625 9.8125 62.3125 
L 9.8125 71.09375 
Q 15.4375 72.65625 20.34375 73.4375 
Q 25.25 74.21875 29.59375 74.21875 
Q 40.828125 74.21875 47.359375 69.109375 
Q 53.90625 64.015625 53.90625 55.328125 
Q 53.90625 49.265625 50.4375 45.09375 
Q 46.96875 40.921875 40.578125 39.3125 
z
" id="DejaVuSans-51"/>
       </defs>
       <use xlink:href="#DejaVuSans-48"/>
       <use x="63.623047" xlink:href="#DejaVuSans-46"/>
       <use x="95.410156" xlink:href="#DejaVuSans-48"/>
       <use x="159.033203" xlink:href="#DejaVuSans-51"/>
      </g>
     </g>
    </g>
    <g id="xtick_5">
     <g id="line2d_5">
      <g>
       <use style="stroke:#000000;stroke-width:0.8;" x="587.851936" xlink:href="#m10352ed779" y="504"/>
      </g>
     </g>
     <g id="text_5">
      <!-- 0.04 -->
      <g transform="translate(565.586311 526.196875)scale(0.2 -0.2)">
       <defs>
        <path d="M 37.796875 64.3125 
L 12.890625 25.390625 
L 37.796875 25.390625 
z
M 35.203125 72.90625 
L 47.609375 72.90625 
L 47.609375 25.390625 
L 58.015625 25.390625 
L 58.015625 17.1875 
L 47.609375 17.1875 
L 47.609375 0 
L 37.796875 0 
L 37.796875 17.1875 
L 4.890625 17.1875 
L 4.890625 26.703125 
z
" id="DejaVuSans-52"/>
       </defs>
       <use xlink:href="#DejaVuSans-48"/>
       <use x="63.623047" xlink:href="#DejaVuSans-46"/>
       <use x="95.410156" xlink:href="#DejaVuSans-48"/>
       <use x="159.033203" xlink:href="#DejaVuSans-52"/>
      </g>
     </g>
    </g>
    <g id="text_6">
     <!-- pseudo R-squared -->
     <g transform="translate(241.226562 553.352344)scale(0.25 -0.25)">
      <defs>
       <path d="M 25.875 7.90625 
L 25.875 -20.796875 
L 8.40625 -20.796875 
L 8.40625 54.6875 
L 25.875 54.6875 
L 25.875 46.6875 
Q 29.5 51.46875 33.890625 53.734375 
Q 38.28125 56 44 56 
Q 54.109375 56 60.59375 47.96875 
Q 67.09375 39.9375 67.09375 27.296875 
Q 67.09375 14.65625 60.59375 6.609375 
Q 54.109375 -1.421875 44 -1.421875 
Q 38.28125 -1.421875 33.890625 0.84375 
Q 29.5 3.125 25.875 7.90625 
z
M 37.5 43.3125 
Q 31.890625 43.3125 28.875 39.1875 
Q 25.875 35.0625 25.875 27.296875 
Q 25.875 19.53125 28.875 15.40625 
Q 31.890625 11.28125 37.5 11.28125 
Q 43.109375 11.28125 46.0625 15.375 
Q 49.03125 19.484375 49.03125 27.296875 
Q 49.03125 35.109375 46.0625 39.203125 
Q 43.109375 43.3125 37.5 43.3125 
z
" id="DejaVuSans-Bold-112"/>
       <path d="M 51.125 52.984375 
L 51.125 39.703125 
Q 45.515625 42.046875 40.28125 43.21875 
Q 35.0625 44.390625 30.421875 44.390625 
Q 25.4375 44.390625 23.015625 43.140625 
Q 20.609375 41.890625 20.609375 39.3125 
Q 20.609375 37.203125 22.4375 36.078125 
Q 24.265625 34.96875 29 34.421875 
L 32.078125 33.984375 
Q 45.515625 32.28125 50.140625 28.375 
Q 54.78125 24.46875 54.78125 16.109375 
Q 54.78125 7.375 48.328125 2.96875 
Q 41.890625 -1.421875 29.109375 -1.421875 
Q 23.6875 -1.421875 17.890625 -0.5625 
Q 12.109375 0.296875 6 2 
L 6 15.28125 
Q 11.234375 12.75 16.71875 11.46875 
Q 22.21875 10.203125 27.875 10.203125 
Q 33.015625 10.203125 35.59375 11.609375 
Q 38.1875 13.03125 38.1875 15.828125 
Q 38.1875 18.171875 36.40625 19.3125 
Q 34.625 20.453125 29.296875 21.09375 
L 26.21875 21.484375 
Q 14.546875 22.953125 9.859375 26.90625 
Q 5.171875 30.859375 5.171875 38.921875 
Q 5.171875 47.609375 11.125 51.796875 
Q 17.09375 56 29.390625 56 
Q 34.234375 56 39.546875 55.265625 
Q 44.875 54.546875 51.125 52.984375 
z
" id="DejaVuSans-Bold-115"/>
       <path d="M 62.984375 27.484375 
L 62.984375 22.515625 
L 22.125 22.515625 
Q 22.75 16.359375 26.5625 13.28125 
Q 30.375 10.203125 37.203125 10.203125 
Q 42.71875 10.203125 48.5 11.84375 
Q 54.296875 13.484375 60.40625 16.796875 
L 60.40625 3.328125 
Q 54.203125 0.984375 48 -0.21875 
Q 41.796875 -1.421875 35.59375 -1.421875 
Q 20.75 -1.421875 12.515625 6.125 
Q 4.296875 13.671875 4.296875 27.296875 
Q 4.296875 40.671875 12.375 48.328125 
Q 20.453125 56 34.625 56 
Q 47.515625 56 55.25 48.234375 
Q 62.984375 40.484375 62.984375 27.484375 
z
M 45.015625 33.296875 
Q 45.015625 38.28125 42.109375 41.328125 
Q 39.203125 44.390625 34.515625 44.390625 
Q 29.4375 44.390625 26.265625 41.53125 
Q 23.09375 38.671875 22.3125 33.296875 
z
" id="DejaVuSans-Bold-101"/>
       <path d="M 7.8125 21.296875 
L 7.8125 54.6875 
L 25.390625 54.6875 
L 25.390625 49.21875 
Q 25.390625 44.78125 25.34375 38.0625 
Q 25.296875 31.34375 25.296875 29.109375 
Q 25.296875 22.515625 25.640625 19.609375 
Q 25.984375 16.703125 26.8125 15.375 
Q 27.875 13.671875 29.609375 12.734375 
Q 31.34375 11.8125 33.59375 11.8125 
Q 39.0625 11.8125 42.1875 16.015625 
Q 45.3125 20.21875 45.3125 27.6875 
L 45.3125 54.6875 
L 62.796875 54.6875 
L 62.796875 0 
L 45.3125 0 
L 45.3125 7.90625 
Q 41.359375 3.125 36.9375 0.84375 
Q 32.515625 -1.421875 27.203125 -1.421875 
Q 17.71875 -1.421875 12.765625 4.390625 
Q 7.8125 10.203125 7.8125 21.296875 
z
" id="DejaVuSans-Bold-117"/>
       <path d="M 45.609375 46.6875 
L 45.609375 75.984375 
L 63.1875 75.984375 
L 63.1875 0 
L 45.609375 0 
L 45.609375 7.90625 
Q 42 3.078125 37.640625 0.828125 
Q 33.296875 -1.421875 27.59375 -1.421875 
Q 17.484375 -1.421875 10.984375 6.609375 
Q 4.5 14.65625 4.5 27.296875 
Q 4.5 39.9375 10.984375 47.96875 
Q 17.484375 56 27.59375 56 
Q 33.25 56 37.625 53.734375 
Q 42 51.46875 45.609375 46.6875 
z
M 34.078125 11.28125 
Q 39.703125 11.28125 42.65625 15.375 
Q 45.609375 19.484375 45.609375 27.296875 
Q 45.609375 35.109375 42.65625 39.203125 
Q 39.703125 43.3125 34.078125 43.3125 
Q 28.515625 43.3125 25.5625 39.203125 
Q 22.609375 35.109375 22.609375 27.296875 
Q 22.609375 19.484375 25.5625 15.375 
Q 28.515625 11.28125 34.078125 11.28125 
z
" id="DejaVuSans-Bold-100"/>
       <path d="M 34.421875 43.5 
Q 28.609375 43.5 25.5625 39.328125 
Q 22.515625 35.15625 22.515625 27.296875 
Q 22.515625 19.4375 25.5625 15.25 
Q 28.609375 11.078125 34.421875 11.078125 
Q 40.140625 11.078125 43.15625 15.25 
Q 46.1875 19.4375 46.1875 27.296875 
Q 46.1875 35.15625 43.15625 39.328125 
Q 40.140625 43.5 34.421875 43.5 
z
M 34.421875 56 
Q 48.53125 56 56.46875 48.375 
Q 64.40625 40.765625 64.40625 27.296875 
Q 64.40625 13.8125 56.46875 6.1875 
Q 48.53125 -1.421875 34.421875 -1.421875 
Q 20.265625 -1.421875 12.28125 6.1875 
Q 4.296875 13.8125 4.296875 27.296875 
Q 4.296875 40.765625 12.28125 48.375 
Q 20.265625 56 34.421875 56 
z
" id="DejaVuSans-Bold-111"/>
       <path id="DejaVuSans-Bold-32"/>
       <path d="M 35.890625 40.578125 
Q 41.796875 40.578125 44.359375 42.765625 
Q 46.921875 44.96875 46.921875 50 
Q 46.921875 54.984375 44.359375 57.125 
Q 41.796875 59.28125 35.890625 59.28125 
L 27.984375 59.28125 
L 27.984375 40.578125 
z
M 27.984375 27.59375 
L 27.984375 0 
L 9.1875 0 
L 9.1875 72.90625 
L 37.890625 72.90625 
Q 52.296875 72.90625 59 68.0625 
Q 65.71875 63.234375 65.71875 52.78125 
Q 65.71875 45.5625 62.21875 40.921875 
Q 58.734375 36.28125 51.703125 34.078125 
Q 55.5625 33.203125 58.609375 30.09375 
Q 61.671875 27 64.796875 20.703125 
L 75 0 
L 54.984375 0 
L 46.09375 18.109375 
Q 43.40625 23.578125 40.640625 25.578125 
Q 37.890625 27.59375 33.296875 27.59375 
z
" id="DejaVuSans-Bold-82"/>
       <path d="M 5.421875 35.890625 
L 36.078125 35.890625 
L 36.078125 21.6875 
L 5.421875 21.6875 
z
" id="DejaVuSans-Bold-45"/>
       <path d="M 34.078125 43.3125 
Q 28.515625 43.3125 25.5625 39.203125 
Q 22.609375 35.109375 22.609375 27.296875 
Q 22.609375 19.484375 25.5625 15.375 
Q 28.515625 11.28125 34.078125 11.28125 
Q 39.703125 11.28125 42.65625 15.375 
Q 45.609375 19.484375 45.609375 27.296875 
Q 45.609375 35.109375 42.65625 39.203125 
Q 39.703125 43.3125 34.078125 43.3125 
z
M 45.609375 7.90625 
Q 42 3.078125 37.640625 0.828125 
Q 33.296875 -1.421875 27.59375 -1.421875 
Q 17.484375 -1.421875 10.984375 6.609375 
Q 4.5 14.65625 4.5 27.296875 
Q 4.5 39.9375 10.984375 47.921875 
Q 17.484375 55.90625 27.59375 55.90625 
Q 33.296875 55.90625 37.640625 53.65625 
Q 42 51.421875 45.609375 46.578125 
L 45.609375 54.6875 
L 63.1875 54.6875 
L 63.1875 -20.796875 
L 45.609375 -20.796875 
z
" id="DejaVuSans-Bold-113"/>
       <path d="M 32.90625 24.609375 
Q 27.4375 24.609375 24.671875 22.75 
Q 21.921875 20.90625 21.921875 17.28125 
Q 21.921875 13.96875 24.140625 12.078125 
Q 26.375 10.203125 30.328125 10.203125 
Q 35.25 10.203125 38.625 13.734375 
Q 42 17.28125 42 22.609375 
L 42 24.609375 
z
M 59.625 31.203125 
L 59.625 0 
L 42 0 
L 42 8.109375 
Q 38.484375 3.125 34.078125 0.84375 
Q 29.6875 -1.421875 23.390625 -1.421875 
Q 14.890625 -1.421875 9.59375 3.53125 
Q 4.296875 8.5 4.296875 16.40625 
Q 4.296875 26.03125 10.90625 30.515625 
Q 17.53125 35.015625 31.6875 35.015625 
L 42 35.015625 
L 42 36.375 
Q 42 40.53125 38.71875 42.453125 
Q 35.453125 44.390625 28.515625 44.390625 
Q 22.90625 44.390625 18.0625 43.265625 
Q 13.234375 42.140625 9.078125 39.890625 
L 9.078125 53.21875 
Q 14.703125 54.59375 20.359375 55.296875 
Q 26.03125 56 31.6875 56 
Q 46.484375 56 53.046875 50.171875 
Q 59.625 44.34375 59.625 31.203125 
z
" id="DejaVuSans-Bold-97"/>
       <path d="M 49.03125 39.796875 
Q 46.734375 40.875 44.453125 41.375 
Q 42.1875 41.890625 39.890625 41.890625 
Q 33.15625 41.890625 29.515625 37.5625 
Q 25.875 33.25 25.875 25.203125 
L 25.875 0 
L 8.40625 0 
L 8.40625 54.6875 
L 25.875 54.6875 
L 25.875 45.703125 
Q 29.25 51.078125 33.609375 53.53125 
Q 37.984375 56 44.09375 56 
Q 44.96875 56 45.984375 55.921875 
Q 47.015625 55.859375 48.96875 55.609375 
z
" id="DejaVuSans-Bold-114"/>
      </defs>
      <use xlink:href="#DejaVuSans-Bold-112"/>
      <use x="71.582031" xlink:href="#DejaVuSans-Bold-115"/>
      <use x="131.103516" xlink:href="#DejaVuSans-Bold-101"/>
      <use x="198.925781" xlink:href="#DejaVuSans-Bold-117"/>
      <use x="270.117188" xlink:href="#DejaVuSans-Bold-100"/>
      <use x="341.699219" xlink:href="#DejaVuSans-Bold-111"/>
      <use x="410.400391" xlink:href="#DejaVuSans-Bold-32"/>
      <use x="445.214844" xlink:href="#DejaVuSans-Bold-82"/>
      <use x="522.216797" xlink:href="#DejaVuSans-Bold-45"/>
      <use x="563.720703" xlink:href="#DejaVuSans-Bold-115"/>
      <use x="623.242188" xlink:href="#DejaVuSans-Bold-113"/>
      <use x="694.824219" xlink:href="#DejaVuSans-Bold-117"/>
      <use x="766.015625" xlink:href="#DejaVuSans-Bold-97"/>
      <use x="833.496094" xlink:href="#DejaVuSans-Bold-114"/>
      <use x="882.8125" xlink:href="#DejaVuSans-Bold-101"/>
      <use x="950.634766" xlink:href="#DejaVuSans-Bold-100"/>
     </g>
    </g>
   </g>
   <g id="matplotlib.axis_2">
    <g id="text_7">
     <!-- Density -->
     <g transform="translate(80.605469 340.161563)rotate(-90)scale(0.25 -0.25)">
      <defs>
       <path d="M 27.984375 58.6875 
L 27.984375 14.203125 
L 34.71875 14.203125 
Q 46.234375 14.203125 52.3125 19.921875 
Q 58.40625 25.640625 58.40625 36.53125 
Q 58.40625 47.359375 52.34375 53.015625 
Q 46.296875 58.6875 34.71875 58.6875 
z
M 9.1875 72.90625 
L 29 72.90625 
Q 45.609375 72.90625 53.734375 70.53125 
Q 61.859375 68.171875 67.671875 62.5 
Q 72.796875 57.5625 75.28125 51.109375 
Q 77.78125 44.671875 77.78125 36.53125 
Q 77.78125 28.265625 75.28125 21.796875 
Q 72.796875 15.328125 67.671875 10.40625 
Q 61.8125 4.734375 53.609375 2.359375 
Q 45.40625 0 29 0 
L 9.1875 0 
z
" id="DejaVuSans-Bold-68"/>
       <path d="M 63.375 33.296875 
L 63.375 0 
L 45.796875 0 
L 45.796875 5.421875 
L 45.796875 25.484375 
Q 45.796875 32.5625 45.484375 35.25 
Q 45.171875 37.9375 44.390625 39.203125 
Q 43.359375 40.921875 41.59375 41.875 
Q 39.84375 42.828125 37.59375 42.828125 
Q 32.125 42.828125 29 38.59375 
Q 25.875 34.375 25.875 26.90625 
L 25.875 0 
L 8.40625 0 
L 8.40625 54.6875 
L 25.875 54.6875 
L 25.875 46.6875 
Q 29.828125 51.46875 34.265625 53.734375 
Q 38.71875 56 44.09375 56 
Q 53.5625 56 58.46875 50.1875 
Q 63.375 44.390625 63.375 33.296875 
z
" id="DejaVuSans-Bold-110"/>
       <path d="M 8.40625 54.6875 
L 25.875 54.6875 
L 25.875 0 
L 8.40625 0 
z
M 8.40625 75.984375 
L 25.875 75.984375 
L 25.875 61.71875 
L 8.40625 61.71875 
z
" id="DejaVuSans-Bold-105"/>
       <path d="M 27.484375 70.21875 
L 27.484375 54.6875 
L 45.515625 54.6875 
L 45.515625 42.1875 
L 27.484375 42.1875 
L 27.484375 19 
Q 27.484375 15.1875 29 13.84375 
Q 30.515625 12.5 35.015625 12.5 
L 44 12.5 
L 44 0 
L 29 0 
Q 18.65625 0 14.328125 4.3125 
Q 10.015625 8.640625 10.015625 19 
L 10.015625 42.1875 
L 1.3125 42.1875 
L 1.3125 54.6875 
L 10.015625 54.6875 
L 10.015625 70.21875 
z
" id="DejaVuSans-Bold-116"/>
       <path d="M 1.21875 54.6875 
L 18.703125 54.6875 
L 33.40625 17.578125 
L 45.90625 54.6875 
L 63.375 54.6875 
L 40.375 -5.171875 
Q 36.921875 -14.3125 32.296875 -17.9375 
Q 27.6875 -21.578125 20.125 -21.578125 
L 10.015625 -21.578125 
L 10.015625 -10.109375 
L 15.484375 -10.109375 
Q 19.921875 -10.109375 21.9375 -8.6875 
Q 23.96875 -7.28125 25.09375 -3.609375 
L 25.59375 -2.09375 
z
" id="DejaVuSans-Bold-121"/>
      </defs>
      <use xlink:href="#DejaVuSans-Bold-68"/>
      <use x="83.007812" xlink:href="#DejaVuSans-Bold-101"/>
      <use x="150.830078" xlink:href="#DejaVuSans-Bold-110"/>
      <use x="222.021484" xlink:href="#DejaVuSans-Bold-115"/>
      <use x="281.542969" xlink:href="#DejaVuSans-Bold-105"/>
      <use x="315.820312" xlink:href="#DejaVuSans-Bold-116"/>
      <use x="363.623047" xlink:href="#DejaVuSans-Bold-121"/>
     </g>
    </g>
   </g>
   <g id="LineCollection_1">
    <path clip-path="url(#pfbeb84a91b)" d="M 362.08546 504 
L 362.08546 493.128 
" style="fill:none;stroke:#cc78bc;"/>
    <path clip-path="url(#pfbeb84a91b)" d="M 294.755672 504 
L 294.755672 493.128 
" style="fill:none;stroke:#cc78bc;"/>
    <path clip-path="url(#pfbeb84a91b)" d="M 322.05653 504 
L 322.05653 493.128 
" style="fill:none;stroke:#cc78bc;"/>
    <path clip-path="url(#pfbeb84a91b)" d="M 300.100458 504 
L 300.100458 493.128 
" style="fill:none;stroke:#cc78bc;"/>
    <path clip-path="url(#pfbeb84a91b)" d="M 300.919695 504 
L 300.919695 493.128 
" style="fill:none;stroke:#cc78bc;"/>
    <path clip-path="url(#pfbeb84a91b)" d="M 356.988589 504 
L 356.988589 493.128 
" style="fill:none;stroke:#cc78bc;"/>
    <path clip-path="url(#pfbeb84a91b)" d="M 257.230404 504 
L 257.230404 493.128 
" style="fill:none;stroke:#cc78bc;"/>
    <path clip-path="url(#pfbeb84a91b)" d="M 459.218573 504 
L 459.218573 493.128 
" style="fill:none;stroke:#cc78bc;"/>
    <path clip-path="url(#pfbeb84a91b)" d="M 292.172895 504 
L 292.172895 493.128 
" style="fill:none;stroke:#cc78bc;"/>
    <path clip-path="url(#pfbeb84a91b)" d="M 367.284709 504 
L 367.284709 493.128 
" style="fill:none;stroke:#cc78bc;"/>
    <path clip-path="url(#pfbeb84a91b)" d="M 370.650216 504 
L 370.650216 493.128 
" style="fill:none;stroke:#cc78bc;"/>
    <path clip-path="url(#pfbeb84a91b)" d="M 486.506794 504 
L 486.506794 493.128 
" style="fill:none;stroke:#cc78bc;"/>
    <path clip-path="url(#pfbeb84a91b)" d="M 340.028104 504 
L 340.028104 493.128 
" style="fill:none;stroke:#cc78bc;"/>
    <path clip-path="url(#pfbeb84a91b)" d="M 261.926626 504 
L 261.926626 493.128 
" style="fill:none;stroke:#cc78bc;"/>
    <path clip-path="url(#pfbeb84a91b)" d="M 359.936996 504 
L 359.936996 493.128 
" style="fill:none;stroke:#cc78bc;"/>
    <path clip-path="url(#pfbeb84a91b)" d="M 252.917746 504 
L 252.917746 493.128 
" style="fill:none;stroke:#cc78bc;"/>
    <path clip-path="url(#pfbeb84a91b)" d="M 290.725937 504 
L 290.725937 493.128 
" style="fill:none;stroke:#cc78bc;"/>
    <path clip-path="url(#pfbeb84a91b)" d="M 327.981052 504 
L 327.981052 493.128 
" style="fill:none;stroke:#cc78bc;"/>
    <path clip-path="url(#pfbeb84a91b)" d="M 267.141296 504 
L 267.141296 493.128 
" style="fill:none;stroke:#cc78bc;"/>
    <path clip-path="url(#pfbeb84a91b)" d="M 299.31763 504 
L 299.31763 493.128 
" style="fill:none;stroke:#cc78bc;"/>
    <path clip-path="url(#pfbeb84a91b)" d="M 403.262918 504 
L 403.262918 493.128 
" style="fill:none;stroke:#cc78bc;"/>
    <path clip-path="url(#pfbeb84a91b)" d="M 370.524351 504 
L 370.524351 493.128 
" style="fill:none;stroke:#cc78bc;"/>
    <path clip-path="url(#pfbeb84a91b)" d="M 416.305635 504 
L 416.305635 493.128 
" style="fill:none;stroke:#cc78bc;"/>
    <path clip-path="url(#pfbeb84a91b)" d="M 386.876818 504 
L 386.876818 493.128 
" style="fill:none;stroke:#cc78bc;"/>
    <path clip-path="url(#pfbeb84a91b)" d="M 478.423232 504 
L 478.423232 493.128 
" style="fill:none;stroke:#cc78bc;"/>
    <path clip-path="url(#pfbeb84a91b)" d="M 346.108582 504 
L 346.108582 493.128 
" style="fill:none;stroke:#cc78bc;"/>
    <path clip-path="url(#pfbeb84a91b)" d="M 409.48814 504 
L 409.48814 493.128 
" style="fill:none;stroke:#cc78bc;"/>
    <path clip-path="url(#pfbeb84a91b)" d="M 433.851904 504 
L 433.851904 493.128 
" style="fill:none;stroke:#cc78bc;"/>
    <path clip-path="url(#pfbeb84a91b)" d="M 367.150761 504 
L 367.150761 493.128 
" style="fill:none;stroke:#cc78bc;"/>
    <path clip-path="url(#pfbeb84a91b)" d="M 361.096202 504 
L 361.096202 493.128 
" style="fill:none;stroke:#cc78bc;"/>
    <path clip-path="url(#pfbeb84a91b)" d="M 323.632682 504 
L 323.632682 493.128 
" style="fill:none;stroke:#cc78bc;"/>
    <path clip-path="url(#pfbeb84a91b)" d="M 290.075393 504 
L 290.075393 493.128 
" style="fill:none;stroke:#cc78bc;"/>
    <path clip-path="url(#pfbeb84a91b)" d="M 223.838024 504 
L 223.838024 493.128 
" style="fill:none;stroke:#cc78bc;"/>
    <path clip-path="url(#pfbeb84a91b)" d="M 247.841744 504 
L 247.841744 493.128 
" style="fill:none;stroke:#cc78bc;"/>
    <path clip-path="url(#pfbeb84a91b)" d="M 268.292655 504 
L 268.292655 493.128 
" style="fill:none;stroke:#cc78bc;"/>
    <path clip-path="url(#pfbeb84a91b)" d="M 324.193997 504 
L 324.193997 493.128 
" style="fill:none;stroke:#cc78bc;"/>
    <path clip-path="url(#pfbeb84a91b)" d="M 267.40476 504 
L 267.40476 493.128 
" style="fill:none;stroke:#cc78bc;"/>
    <path clip-path="url(#pfbeb84a91b)" d="M 476.512324 504 
L 476.512324 493.128 
" style="fill:none;stroke:#cc78bc;"/>
    <path clip-path="url(#pfbeb84a91b)" d="M 280.442387 504 
L 280.442387 493.128 
" style="fill:none;stroke:#cc78bc;"/>
    <path clip-path="url(#pfbeb84a91b)" d="M 367.502784 504 
L 367.502784 493.128 
" style="fill:none;stroke:#cc78bc;"/>
    <path clip-path="url(#pfbeb84a91b)" d="M 288.343656 504 
L 288.343656 493.128 
" style="fill:none;stroke:#cc78bc;"/>
    <path clip-path="url(#pfbeb84a91b)" d="M 249.48304 504 
L 249.48304 493.128 
" style="fill:none;stroke:#cc78bc;"/>
    <path clip-path="url(#pfbeb84a91b)" d="M 256.381774 504 
L 256.381774 493.128 
" style="fill:none;stroke:#cc78bc;"/>
    <path clip-path="url(#pfbeb84a91b)" d="M 299.718863 504 
L 299.718863 493.128 
" style="fill:none;stroke:#cc78bc;"/>
    <path clip-path="url(#pfbeb84a91b)" d="M 373.272474 504 
L 373.272474 493.128 
" style="fill:none;stroke:#cc78bc;"/>
    <path clip-path="url(#pfbeb84a91b)" d="M 288.050514 504 
L 288.050514 493.128 
" style="fill:none;stroke:#cc78bc;"/>
    <path clip-path="url(#pfbeb84a91b)" d="M 213.096726 504 
L 213.096726 493.128 
" style="fill:none;stroke:#cc78bc;"/>
    <path clip-path="url(#pfbeb84a91b)" d="M 422.750493 504 
L 422.750493 493.128 
" style="fill:none;stroke:#cc78bc;"/>
    <path clip-path="url(#pfbeb84a91b)" d="M 449.586358 504 
L 449.586358 493.128 
" style="fill:none;stroke:#cc78bc;"/>
    <path clip-path="url(#pfbeb84a91b)" d="M 407.424787 504 
L 407.424787 493.128 
" style="fill:none;stroke:#cc78bc;"/>
    <path clip-path="url(#pfbeb84a91b)" d="M 375.056548 504 
L 375.056548 493.128 
" style="fill:none;stroke:#cc78bc;"/>
    <path clip-path="url(#pfbeb84a91b)" d="M 371.169682 504 
L 371.169682 493.128 
" style="fill:none;stroke:#cc78bc;"/>
    <path clip-path="url(#pfbeb84a91b)" d="M 363.215779 504 
L 363.215779 493.128 
" style="fill:none;stroke:#cc78bc;"/>
    <path clip-path="url(#pfbeb84a91b)" d="M 279.448056 504 
L 279.448056 493.128 
" style="fill:none;stroke:#cc78bc;"/>
    <path clip-path="url(#pfbeb84a91b)" d="M 312.690458 504 
L 312.690458 493.128 
" style="fill:none;stroke:#cc78bc;"/>
    <path clip-path="url(#pfbeb84a91b)" d="M 373.019099 504 
L 373.019099 493.128 
" style="fill:none;stroke:#cc78bc;"/>
    <path clip-path="url(#pfbeb84a91b)" d="M 253.366403 504 
L 253.366403 493.128 
" style="fill:none;stroke:#cc78bc;"/>
    <path clip-path="url(#pfbeb84a91b)" d="M 424.476134 504 
L 424.476134 493.128 
" style="fill:none;stroke:#cc78bc;"/>
    <path clip-path="url(#pfbeb84a91b)" d="M 290.844888 504 
L 290.844888 493.128 
" style="fill:none;stroke:#cc78bc;"/>
    <path clip-path="url(#pfbeb84a91b)" d="M 431.440106 504 
L 431.440106 493.128 
" style="fill:none;stroke:#cc78bc;"/>
    <path clip-path="url(#pfbeb84a91b)" d="M 332.697582 504 
L 332.697582 493.128 
" style="fill:none;stroke:#cc78bc;"/>
    <path clip-path="url(#pfbeb84a91b)" d="M 240.200313 504 
L 240.200313 493.128 
" style="fill:none;stroke:#cc78bc;"/>
    <path clip-path="url(#pfbeb84a91b)" d="M 351.760095 504 
L 351.760095 493.128 
" style="fill:none;stroke:#cc78bc;"/>
    <path clip-path="url(#pfbeb84a91b)" d="M 251.832071 504 
L 251.832071 493.128 
" style="fill:none;stroke:#cc78bc;"/>
    <path clip-path="url(#pfbeb84a91b)" d="M 368.305127 504 
L 368.305127 493.128 
" style="fill:none;stroke:#cc78bc;"/>
    <path clip-path="url(#pfbeb84a91b)" d="M 270.075341 504 
L 270.075341 493.128 
" style="fill:none;stroke:#cc78bc;"/>
    <path clip-path="url(#pfbeb84a91b)" d="M 383.903239 504 
L 383.903239 493.128 
" style="fill:none;stroke:#cc78bc;"/>
    <path clip-path="url(#pfbeb84a91b)" d="M 342.586316 504 
L 342.586316 493.128 
" style="fill:none;stroke:#cc78bc;"/>
    <path clip-path="url(#pfbeb84a91b)" d="M 418.642002 504 
L 418.642002 493.128 
" style="fill:none;stroke:#cc78bc;"/>
    <path clip-path="url(#pfbeb84a91b)" d="M 266.229478 504 
L 266.229478 493.128 
" style="fill:none;stroke:#cc78bc;"/>
    <path clip-path="url(#pfbeb84a91b)" d="M 403.265327 504 
L 403.265327 493.128 
" style="fill:none;stroke:#cc78bc;"/>
    <path clip-path="url(#pfbeb84a91b)" d="M 410.737897 504 
L 410.737897 493.128 
" style="fill:none;stroke:#cc78bc;"/>
    <path clip-path="url(#pfbeb84a91b)" d="M 330.483705 504 
L 330.483705 493.128 
" style="fill:none;stroke:#cc78bc;"/>
    <path clip-path="url(#pfbeb84a91b)" d="M 260.893975 504 
L 260.893975 493.128 
" style="fill:none;stroke:#cc78bc;"/>
    <path clip-path="url(#pfbeb84a91b)" d="M 310.094194 504 
L 310.094194 493.128 
" style="fill:none;stroke:#cc78bc;"/>
    <path clip-path="url(#pfbeb84a91b)" d="M 301.123793 504 
L 301.123793 493.128 
" style="fill:none;stroke:#cc78bc;"/>
    <path clip-path="url(#pfbeb84a91b)" d="M 377.567994 504 
L 377.567994 493.128 
" style="fill:none;stroke:#cc78bc;"/>
    <path clip-path="url(#pfbeb84a91b)" d="M 280.28867 504 
L 280.28867 493.128 
" style="fill:none;stroke:#cc78bc;"/>
    <path clip-path="url(#pfbeb84a91b)" d="M 309.731988 504 
L 309.731988 493.128 
" style="fill:none;stroke:#cc78bc;"/>
    <path clip-path="url(#pfbeb84a91b)" d="M 221.378684 504 
L 221.378684 493.128 
" style="fill:none;stroke:#cc78bc;"/>
    <path clip-path="url(#pfbeb84a91b)" d="M 430.762149 504 
L 430.762149 493.128 
" style="fill:none;stroke:#cc78bc;"/>
    <path clip-path="url(#pfbeb84a91b)" d="M 358.423716 504 
L 358.423716 493.128 
" style="fill:none;stroke:#cc78bc;"/>
    <path clip-path="url(#pfbeb84a91b)" d="M 399.298769 504 
L 399.298769 493.128 
" style="fill:none;stroke:#cc78bc;"/>
    <path clip-path="url(#pfbeb84a91b)" d="M 447.742076 504 
L 447.742076 493.128 
" style="fill:none;stroke:#cc78bc;"/>
    <path clip-path="url(#pfbeb84a91b)" d="M 342.85842 504 
L 342.85842 493.128 
" style="fill:none;stroke:#cc78bc;"/>
    <path clip-path="url(#pfbeb84a91b)" d="M 408.137609 504 
L 408.137609 493.128 
" style="fill:none;stroke:#cc78bc;"/>
   </g>
   <g id="LineCollection_2">
    <path clip-path="url(#pfbeb84a91b)" d="M 256.544115 504 
L 256.544115 493.128 
" style="fill:none;stroke:#de8f05;"/>
    <path clip-path="url(#pfbeb84a91b)" d="M 394.712562 504 
L 394.712562 493.128 
" style="fill:none;stroke:#de8f05;"/>
    <path clip-path="url(#pfbeb84a91b)" d="M 371.050084 504 
L 371.050084 493.128 
" style="fill:none;stroke:#de8f05;"/>
    <path clip-path="url(#pfbeb84a91b)" d="M 206.74788 504 
L 206.74788 493.128 
" style="fill:none;stroke:#de8f05;"/>
    <path clip-path="url(#pfbeb84a91b)" d="M 262.910902 504 
L 262.910902 493.128 
" style="fill:none;stroke:#de8f05;"/>
    <path clip-path="url(#pfbeb84a91b)" d="M 256.028946 504 
L 256.028946 493.128 
" style="fill:none;stroke:#de8f05;"/>
    <path clip-path="url(#pfbeb84a91b)" d="M 315.776623 504 
L 315.776623 493.128 
" style="fill:none;stroke:#de8f05;"/>
    <path clip-path="url(#pfbeb84a91b)" d="M 255.262879 504 
L 255.262879 493.128 
" style="fill:none;stroke:#de8f05;"/>
    <path clip-path="url(#pfbeb84a91b)" d="M 218.251076 504 
L 218.251076 493.128 
" style="fill:none;stroke:#de8f05;"/>
    <path clip-path="url(#pfbeb84a91b)" d="M 361.267118 504 
L 361.267118 493.128 
" style="fill:none;stroke:#de8f05;"/>
    <path clip-path="url(#pfbeb84a91b)" d="M 533.250871 504 
L 533.250871 493.128 
" style="fill:none;stroke:#de8f05;"/>
    <path clip-path="url(#pfbeb84a91b)" d="M 440.869697 504 
L 440.869697 493.128 
" style="fill:none;stroke:#de8f05;"/>
    <path clip-path="url(#pfbeb84a91b)" d="M 503.194729 504 
L 503.194729 493.128 
" style="fill:none;stroke:#de8f05;"/>
    <path clip-path="url(#pfbeb84a91b)" d="M 230.624416 504 
L 230.624416 493.128 
" style="fill:none;stroke:#de8f05;"/>
    <path clip-path="url(#pfbeb84a91b)" d="M 454.171668 504 
L 454.171668 493.128 
" style="fill:none;stroke:#de8f05;"/>
    <path clip-path="url(#pfbeb84a91b)" d="M 321.949477 504 
L 321.949477 493.128 
" style="fill:none;stroke:#de8f05;"/>
    <path clip-path="url(#pfbeb84a91b)" d="M 268.534161 504 
L 268.534161 493.128 
" style="fill:none;stroke:#de8f05;"/>
    <path clip-path="url(#pfbeb84a91b)" d="M 204.749129 504 
L 204.749129 493.128 
" style="fill:none;stroke:#de8f05;"/>
    <path clip-path="url(#pfbeb84a91b)" d="M 299.310116 504 
L 299.310116 493.128 
" style="fill:none;stroke:#de8f05;"/>
    <path clip-path="url(#pfbeb84a91b)" d="M 372.855449 504 
L 372.855449 493.128 
" style="fill:none;stroke:#de8f05;"/>
    <path clip-path="url(#pfbeb84a91b)" d="M 466.020436 504 
L 466.020436 493.128 
" style="fill:none;stroke:#de8f05;"/>
    <path clip-path="url(#pfbeb84a91b)" d="M 260.893949 504 
L 260.893949 493.128 
" style="fill:none;stroke:#de8f05;"/>
    <path clip-path="url(#pfbeb84a91b)" d="M 375.85099 504 
L 375.85099 493.128 
" style="fill:none;stroke:#de8f05;"/>
    <path clip-path="url(#pfbeb84a91b)" d="M 269.012785 504 
L 269.012785 493.128 
" style="fill:none;stroke:#de8f05;"/>
    <path clip-path="url(#pfbeb84a91b)" d="M 254.93917 504 
L 254.93917 493.128 
" style="fill:none;stroke:#de8f05;"/>
    <path clip-path="url(#pfbeb84a91b)" d="M 337.155186 504 
L 337.155186 493.128 
" style="fill:none;stroke:#de8f05;"/>
    <path clip-path="url(#pfbeb84a91b)" d="M 341.640761 504 
L 341.640761 493.128 
" style="fill:none;stroke:#de8f05;"/>
    <path clip-path="url(#pfbeb84a91b)" d="M 390.298411 504 
L 390.298411 493.128 
" style="fill:none;stroke:#de8f05;"/>
    <path clip-path="url(#pfbeb84a91b)" d="M 236.647835 504 
L 236.647835 493.128 
" style="fill:none;stroke:#de8f05;"/>
    <path clip-path="url(#pfbeb84a91b)" d="M 225.027714 504 
L 225.027714 493.128 
" style="fill:none;stroke:#de8f05;"/>
    <path clip-path="url(#pfbeb84a91b)" d="M 293.006364 504 
L 293.006364 493.128 
" style="fill:none;stroke:#de8f05;"/>
    <path clip-path="url(#pfbeb84a91b)" d="M 358.30609 504 
L 358.30609 493.128 
" style="fill:none;stroke:#de8f05;"/>
    <path clip-path="url(#pfbeb84a91b)" d="M 278.989154 504 
L 278.989154 493.128 
" style="fill:none;stroke:#de8f05;"/>
    <path clip-path="url(#pfbeb84a91b)" d="M 216.516422 504 
L 216.516422 493.128 
" style="fill:none;stroke:#de8f05;"/>
    <path clip-path="url(#pfbeb84a91b)" d="M 296.402026 504 
L 296.402026 493.128 
" style="fill:none;stroke:#de8f05;"/>
    <path clip-path="url(#pfbeb84a91b)" d="M 291.891073 504 
L 291.891073 493.128 
" style="fill:none;stroke:#de8f05;"/>
    <path clip-path="url(#pfbeb84a91b)" d="M 265.45534 504 
L 265.45534 493.128 
" style="fill:none;stroke:#de8f05;"/>
    <path clip-path="url(#pfbeb84a91b)" d="M 385.111115 504 
L 385.111115 493.128 
" style="fill:none;stroke:#de8f05;"/>
    <path clip-path="url(#pfbeb84a91b)" d="M 289.79607 504 
L 289.79607 493.128 
" style="fill:none;stroke:#de8f05;"/>
    <path clip-path="url(#pfbeb84a91b)" d="M 235.42513 504 
L 235.42513 493.128 
" style="fill:none;stroke:#de8f05;"/>
    <path clip-path="url(#pfbeb84a91b)" d="M 209.562183 504 
L 209.562183 493.128 
" style="fill:none;stroke:#de8f05;"/>
    <path clip-path="url(#pfbeb84a91b)" d="M 281.784626 504 
L 281.784626 493.128 
" style="fill:none;stroke:#de8f05;"/>
    <path clip-path="url(#pfbeb84a91b)" d="M 250.386358 504 
L 250.386358 493.128 
" style="fill:none;stroke:#de8f05;"/>
    <path clip-path="url(#pfbeb84a91b)" d="M 334.354464 504 
L 334.354464 493.128 
" style="fill:none;stroke:#de8f05;"/>
    <path clip-path="url(#pfbeb84a91b)" d="M 282.551138 504 
L 282.551138 493.128 
" style="fill:none;stroke:#de8f05;"/>
    <path clip-path="url(#pfbeb84a91b)" d="M 257.352174 504 
L 257.352174 493.128 
" style="fill:none;stroke:#de8f05;"/>
    <path clip-path="url(#pfbeb84a91b)" d="M 278.276443 504 
L 278.276443 493.128 
" style="fill:none;stroke:#de8f05;"/>
    <path clip-path="url(#pfbeb84a91b)" d="M 325.606704 504 
L 325.606704 493.128 
" style="fill:none;stroke:#de8f05;"/>
    <path clip-path="url(#pfbeb84a91b)" d="M 369.647794 504 
L 369.647794 493.128 
" style="fill:none;stroke:#de8f05;"/>
    <path clip-path="url(#pfbeb84a91b)" d="M 362.436266 504 
L 362.436266 493.128 
" style="fill:none;stroke:#de8f05;"/>
    <path clip-path="url(#pfbeb84a91b)" d="M 244.412282 504 
L 244.412282 493.128 
" style="fill:none;stroke:#de8f05;"/>
    <path clip-path="url(#pfbeb84a91b)" d="M 241.287159 504 
L 241.287159 493.128 
" style="fill:none;stroke:#de8f05;"/>
    <path clip-path="url(#pfbeb84a91b)" d="M 293.117991 504 
L 293.117991 493.128 
" style="fill:none;stroke:#de8f05;"/>
    <path clip-path="url(#pfbeb84a91b)" d="M 280.71566 504 
L 280.71566 493.128 
" style="fill:none;stroke:#de8f05;"/>
    <path clip-path="url(#pfbeb84a91b)" d="M 284.687607 504 
L 284.687607 493.128 
" style="fill:none;stroke:#de8f05;"/>
    <path clip-path="url(#pfbeb84a91b)" d="M 230.426672 504 
L 230.426672 493.128 
" style="fill:none;stroke:#de8f05;"/>
    <path clip-path="url(#pfbeb84a91b)" d="M 278.900291 504 
L 278.900291 493.128 
" style="fill:none;stroke:#de8f05;"/>
    <path clip-path="url(#pfbeb84a91b)" d="M 342.205011 504 
L 342.205011 493.128 
" style="fill:none;stroke:#de8f05;"/>
    <path clip-path="url(#pfbeb84a91b)" d="M 229.565329 504 
L 229.565329 493.128 
" style="fill:none;stroke:#de8f05;"/>
    <path clip-path="url(#pfbeb84a91b)" d="M 499.068582 504 
L 499.068582 493.128 
" style="fill:none;stroke:#de8f05;"/>
    <path clip-path="url(#pfbeb84a91b)" d="M 263.585166 504 
L 263.585166 493.128 
" style="fill:none;stroke:#de8f05;"/>
    <path clip-path="url(#pfbeb84a91b)" d="M 281.54921 504 
L 281.54921 493.128 
" style="fill:none;stroke:#de8f05;"/>
    <path clip-path="url(#pfbeb84a91b)" d="M 296.066287 504 
L 296.066287 493.128 
" style="fill:none;stroke:#de8f05;"/>
    <path clip-path="url(#pfbeb84a91b)" d="M 262.000831 504 
L 262.000831 493.128 
" style="fill:none;stroke:#de8f05;"/>
    <path clip-path="url(#pfbeb84a91b)" d="M 247.495669 504 
L 247.495669 493.128 
" style="fill:none;stroke:#de8f05;"/>
    <path clip-path="url(#pfbeb84a91b)" d="M 327.412336 504 
L 327.412336 493.128 
" style="fill:none;stroke:#de8f05;"/>
    <path clip-path="url(#pfbeb84a91b)" d="M 228.139743 504 
L 228.139743 493.128 
" style="fill:none;stroke:#de8f05;"/>
    <path clip-path="url(#pfbeb84a91b)" d="M 253.675236 504 
L 253.675236 493.128 
" style="fill:none;stroke:#de8f05;"/>
    <path clip-path="url(#pfbeb84a91b)" d="M 263.977979 504 
L 263.977979 493.128 
" style="fill:none;stroke:#de8f05;"/>
    <path clip-path="url(#pfbeb84a91b)" d="M 291.093344 504 
L 291.093344 493.128 
" style="fill:none;stroke:#de8f05;"/>
    <path clip-path="url(#pfbeb84a91b)" d="M 318.871794 504 
L 318.871794 493.128 
" style="fill:none;stroke:#de8f05;"/>
    <path clip-path="url(#pfbeb84a91b)" d="M 384.023338 504 
L 384.023338 493.128 
" style="fill:none;stroke:#de8f05;"/>
    <path clip-path="url(#pfbeb84a91b)" d="M 231.600208 504 
L 231.600208 493.128 
" style="fill:none;stroke:#de8f05;"/>
    <path clip-path="url(#pfbeb84a91b)" d="M 236.485884 504 
L 236.485884 493.128 
" style="fill:none;stroke:#de8f05;"/>
    <path clip-path="url(#pfbeb84a91b)" d="M 257.48905 504 
L 257.48905 493.128 
" style="fill:none;stroke:#de8f05;"/>
    <path clip-path="url(#pfbeb84a91b)" d="M 205.257269 504 
L 205.257269 493.128 
" style="fill:none;stroke:#de8f05;"/>
    <path clip-path="url(#pfbeb84a91b)" d="M 250.676894 504 
L 250.676894 493.128 
" style="fill:none;stroke:#de8f05;"/>
    <path clip-path="url(#pfbeb84a91b)" d="M 243.680445 504 
L 243.680445 493.128 
" style="fill:none;stroke:#de8f05;"/>
    <path clip-path="url(#pfbeb84a91b)" d="M 294.043542 504 
L 294.043542 493.128 
" style="fill:none;stroke:#de8f05;"/>
    <path clip-path="url(#pfbeb84a91b)" d="M 277.688933 504 
L 277.688933 493.128 
" style="fill:none;stroke:#de8f05;"/>
    <path clip-path="url(#pfbeb84a91b)" d="M 324.160996 504 
L 324.160996 493.128 
" style="fill:none;stroke:#de8f05;"/>
    <path clip-path="url(#pfbeb84a91b)" d="M 268.912109 504 
L 268.912109 493.128 
" style="fill:none;stroke:#de8f05;"/>
    <path clip-path="url(#pfbeb84a91b)" d="M 358.872933 504 
L 358.872933 493.128 
" style="fill:none;stroke:#de8f05;"/>
    <path clip-path="url(#pfbeb84a91b)" d="M 345.95648 504 
L 345.95648 493.128 
" style="fill:none;stroke:#de8f05;"/>
    <path clip-path="url(#pfbeb84a91b)" d="M 256.56434 504 
L 256.56434 493.128 
" style="fill:none;stroke:#de8f05;"/>
    <path clip-path="url(#pfbeb84a91b)" d="M 458.146806 504 
L 458.146806 493.128 
" style="fill:none;stroke:#de8f05;"/>
   </g>
   <g id="LineCollection_3">
    <path clip-path="url(#pfbeb84a91b)" d="M 194.798822 504 
L 194.798822 493.128 
" style="fill:none;stroke:#029e73;"/>
    <path clip-path="url(#pfbeb84a91b)" d="M 193.604265 504 
L 193.604265 493.128 
" style="fill:none;stroke:#029e73;"/>
    <path clip-path="url(#pfbeb84a91b)" d="M 268.07141 504 
L 268.07141 493.128 
" style="fill:none;stroke:#029e73;"/>
    <path clip-path="url(#pfbeb84a91b)" d="M 203.361346 504 
L 203.361346 493.128 
" style="fill:none;stroke:#029e73;"/>
    <path clip-path="url(#pfbeb84a91b)" d="M 269.02146 504 
L 269.02146 493.128 
" style="fill:none;stroke:#029e73;"/>
    <path clip-path="url(#pfbeb84a91b)" d="M 200.089652 504 
L 200.089652 493.128 
" style="fill:none;stroke:#029e73;"/>
    <path clip-path="url(#pfbeb84a91b)" d="M 230.344833 504 
L 230.344833 493.128 
" style="fill:none;stroke:#029e73;"/>
    <path clip-path="url(#pfbeb84a91b)" d="M 256.95372 504 
L 256.95372 493.128 
" style="fill:none;stroke:#029e73;"/>
    <path clip-path="url(#pfbeb84a91b)" d="M 221.542941 504 
L 221.542941 493.128 
" style="fill:none;stroke:#029e73;"/>
    <path clip-path="url(#pfbeb84a91b)" d="M 235.815973 504 
L 235.815973 493.128 
" style="fill:none;stroke:#029e73;"/>
    <path clip-path="url(#pfbeb84a91b)" d="M 227.993225 504 
L 227.993225 493.128 
" style="fill:none;stroke:#029e73;"/>
    <path clip-path="url(#pfbeb84a91b)" d="M 243.064091 504 
L 243.064091 493.128 
" style="fill:none;stroke:#029e73;"/>
    <path clip-path="url(#pfbeb84a91b)" d="M 217.725036 504 
L 217.725036 493.128 
" style="fill:none;stroke:#029e73;"/>
    <path clip-path="url(#pfbeb84a91b)" d="M 220.4965 504 
L 220.4965 493.128 
" style="fill:none;stroke:#029e73;"/>
    <path clip-path="url(#pfbeb84a91b)" d="M 228.055772 504 
L 228.055772 493.128 
" style="fill:none;stroke:#029e73;"/>
    <path clip-path="url(#pfbeb84a91b)" d="M 231.340631 504 
L 231.340631 493.128 
" style="fill:none;stroke:#029e73;"/>
    <path clip-path="url(#pfbeb84a91b)" d="M 266.725717 504 
L 266.725717 493.128 
" style="fill:none;stroke:#029e73;"/>
    <path clip-path="url(#pfbeb84a91b)" d="M 210.241213 504 
L 210.241213 493.128 
" style="fill:none;stroke:#029e73;"/>
    <path clip-path="url(#pfbeb84a91b)" d="M 254.744646 504 
L 254.744646 493.128 
" style="fill:none;stroke:#029e73;"/>
    <path clip-path="url(#pfbeb84a91b)" d="M 190.649875 504 
L 190.649875 493.128 
" style="fill:none;stroke:#029e73;"/>
    <path clip-path="url(#pfbeb84a91b)" d="M 231.217533 504 
L 231.217533 493.128 
" style="fill:none;stroke:#029e73;"/>
    <path clip-path="url(#pfbeb84a91b)" d="M 248.199528 504 
L 248.199528 493.128 
" style="fill:none;stroke:#029e73;"/>
    <path clip-path="url(#pfbeb84a91b)" d="M 233.693289 504 
L 233.693289 493.128 
" style="fill:none;stroke:#029e73;"/>
    <path clip-path="url(#pfbeb84a91b)" d="M 244.640572 504 
L 244.640572 493.128 
" style="fill:none;stroke:#029e73;"/>
    <path clip-path="url(#pfbeb84a91b)" d="M 247.262925 504 
L 247.262925 493.128 
" style="fill:none;stroke:#029e73;"/>
    <path clip-path="url(#pfbeb84a91b)" d="M 233.367965 504 
L 233.367965 493.128 
" style="fill:none;stroke:#029e73;"/>
    <path clip-path="url(#pfbeb84a91b)" d="M 286.665961 504 
L 286.665961 493.128 
" style="fill:none;stroke:#029e73;"/>
    <path clip-path="url(#pfbeb84a91b)" d="M 231.433755 504 
L 231.433755 493.128 
" style="fill:none;stroke:#029e73;"/>
    <path clip-path="url(#pfbeb84a91b)" d="M 257.5383 504 
L 257.5383 493.128 
" style="fill:none;stroke:#029e73;"/>
    <path clip-path="url(#pfbeb84a91b)" d="M 210.91686 504 
L 210.91686 493.128 
" style="fill:none;stroke:#029e73;"/>
    <path clip-path="url(#pfbeb84a91b)" d="M 224.696938 504 
L 224.696938 493.128 
" style="fill:none;stroke:#029e73;"/>
    <path clip-path="url(#pfbeb84a91b)" d="M 196.155862 504 
L 196.155862 493.128 
" style="fill:none;stroke:#029e73;"/>
    <path clip-path="url(#pfbeb84a91b)" d="M 268.028364 504 
L 268.028364 493.128 
" style="fill:none;stroke:#029e73;"/>
    <path clip-path="url(#pfbeb84a91b)" d="M 193.780371 504 
L 193.780371 493.128 
" style="fill:none;stroke:#029e73;"/>
    <path clip-path="url(#pfbeb84a91b)" d="M 258.376587 504 
L 258.376587 493.128 
" style="fill:none;stroke:#029e73;"/>
    <path clip-path="url(#pfbeb84a91b)" d="M 206.31774 504 
L 206.31774 493.128 
" style="fill:none;stroke:#029e73;"/>
    <path clip-path="url(#pfbeb84a91b)" d="M 273.631966 504 
L 273.631966 493.128 
" style="fill:none;stroke:#029e73;"/>
    <path clip-path="url(#pfbeb84a91b)" d="M 274.204193 504 
L 274.204193 493.128 
" style="fill:none;stroke:#029e73;"/>
    <path clip-path="url(#pfbeb84a91b)" d="M 229.837098 504 
L 229.837098 493.128 
" style="fill:none;stroke:#029e73;"/>
    <path clip-path="url(#pfbeb84a91b)" d="M 203.241579 504 
L 203.241579 493.128 
" style="fill:none;stroke:#029e73;"/>
    <path clip-path="url(#pfbeb84a91b)" d="M 209.227753 504 
L 209.227753 493.128 
" style="fill:none;stroke:#029e73;"/>
    <path clip-path="url(#pfbeb84a91b)" d="M 221.372571 504 
L 221.372571 493.128 
" style="fill:none;stroke:#029e73;"/>
    <path clip-path="url(#pfbeb84a91b)" d="M 285.827025 504 
L 285.827025 493.128 
" style="fill:none;stroke:#029e73;"/>
    <path clip-path="url(#pfbeb84a91b)" d="M 226.124069 504 
L 226.124069 493.128 
" style="fill:none;stroke:#029e73;"/>
    <path clip-path="url(#pfbeb84a91b)" d="M 219.80484 504 
L 219.80484 493.128 
" style="fill:none;stroke:#029e73;"/>
    <path clip-path="url(#pfbeb84a91b)" d="M 183.072597 504 
L 183.072597 493.128 
" style="fill:none;stroke:#029e73;"/>
    <path clip-path="url(#pfbeb84a91b)" d="M 218.795027 504 
L 218.795027 493.128 
" style="fill:none;stroke:#029e73;"/>
    <path clip-path="url(#pfbeb84a91b)" d="M 301.17969 504 
L 301.17969 493.128 
" style="fill:none;stroke:#029e73;"/>
    <path clip-path="url(#pfbeb84a91b)" d="M 271.641717 504 
L 271.641717 493.128 
" style="fill:none;stroke:#029e73;"/>
    <path clip-path="url(#pfbeb84a91b)" d="M 285.259104 504 
L 285.259104 493.128 
" style="fill:none;stroke:#029e73;"/>
    <path clip-path="url(#pfbeb84a91b)" d="M 210.841391 504 
L 210.841391 493.128 
" style="fill:none;stroke:#029e73;"/>
    <path clip-path="url(#pfbeb84a91b)" d="M 212.805639 504 
L 212.805639 493.128 
" style="fill:none;stroke:#029e73;"/>
    <path clip-path="url(#pfbeb84a91b)" d="M 261.039948 504 
L 261.039948 493.128 
" style="fill:none;stroke:#029e73;"/>
    <path clip-path="url(#pfbeb84a91b)" d="M 229.507101 504 
L 229.507101 493.128 
" style="fill:none;stroke:#029e73;"/>
    <path clip-path="url(#pfbeb84a91b)" d="M 235.744051 504 
L 235.744051 493.128 
" style="fill:none;stroke:#029e73;"/>
    <path clip-path="url(#pfbeb84a91b)" d="M 195.557322 504 
L 195.557322 493.128 
" style="fill:none;stroke:#029e73;"/>
    <path clip-path="url(#pfbeb84a91b)" d="M 211.637455 504 
L 211.637455 493.128 
" style="fill:none;stroke:#029e73;"/>
    <path clip-path="url(#pfbeb84a91b)" d="M 238.740096 504 
L 238.740096 493.128 
" style="fill:none;stroke:#029e73;"/>
    <path clip-path="url(#pfbeb84a91b)" d="M 193.835497 504 
L 193.835497 493.128 
" style="fill:none;stroke:#029e73;"/>
    <path clip-path="url(#pfbeb84a91b)" d="M 240.305861 504 
L 240.305861 493.128 
" style="fill:none;stroke:#029e73;"/>
    <path clip-path="url(#pfbeb84a91b)" d="M 213.082788 504 
L 213.082788 493.128 
" style="fill:none;stroke:#029e73;"/>
    <path clip-path="url(#pfbeb84a91b)" d="M 272.813175 504 
L 272.813175 493.128 
" style="fill:none;stroke:#029e73;"/>
    <path clip-path="url(#pfbeb84a91b)" d="M 275.818075 504 
L 275.818075 493.128 
" style="fill:none;stroke:#029e73;"/>
    <path clip-path="url(#pfbeb84a91b)" d="M 254.359465 504 
L 254.359465 493.128 
" style="fill:none;stroke:#029e73;"/>
    <path clip-path="url(#pfbeb84a91b)" d="M 208.293579 504 
L 208.293579 493.128 
" style="fill:none;stroke:#029e73;"/>
    <path clip-path="url(#pfbeb84a91b)" d="M 200.269975 504 
L 200.269975 493.128 
" style="fill:none;stroke:#029e73;"/>
    <path clip-path="url(#pfbeb84a91b)" d="M 208.379199 504 
L 208.379199 493.128 
" style="fill:none;stroke:#029e73;"/>
    <path clip-path="url(#pfbeb84a91b)" d="M 205.085159 504 
L 205.085159 493.128 
" style="fill:none;stroke:#029e73;"/>
    <path clip-path="url(#pfbeb84a91b)" d="M 268.307274 504 
L 268.307274 493.128 
" style="fill:none;stroke:#029e73;"/>
    <path clip-path="url(#pfbeb84a91b)" d="M 256.116433 504 
L 256.116433 493.128 
" style="fill:none;stroke:#029e73;"/>
    <path clip-path="url(#pfbeb84a91b)" d="M 219.983358 504 
L 219.983358 493.128 
" style="fill:none;stroke:#029e73;"/>
    <path clip-path="url(#pfbeb84a91b)" d="M 254.80875 504 
L 254.80875 493.128 
" style="fill:none;stroke:#029e73;"/>
    <path clip-path="url(#pfbeb84a91b)" d="M 198.127066 504 
L 198.127066 493.128 
" style="fill:none;stroke:#029e73;"/>
    <path clip-path="url(#pfbeb84a91b)" d="M 293.236418 504 
L 293.236418 493.128 
" style="fill:none;stroke:#029e73;"/>
    <path clip-path="url(#pfbeb84a91b)" d="M 218.00205 504 
L 218.00205 493.128 
" style="fill:none;stroke:#029e73;"/>
    <path clip-path="url(#pfbeb84a91b)" d="M 218.568501 504 
L 218.568501 493.128 
" style="fill:none;stroke:#029e73;"/>
    <path clip-path="url(#pfbeb84a91b)" d="M 201.995642 504 
L 201.995642 493.128 
" style="fill:none;stroke:#029e73;"/>
    <path clip-path="url(#pfbeb84a91b)" d="M 184.32799 504 
L 184.32799 493.128 
" style="fill:none;stroke:#029e73;"/>
    <path clip-path="url(#pfbeb84a91b)" d="M 235.337648 504 
L 235.337648 493.128 
" style="fill:none;stroke:#029e73;"/>
    <path clip-path="url(#pfbeb84a91b)" d="M 224.992029 504 
L 224.992029 493.128 
" style="fill:none;stroke:#029e73;"/>
    <path clip-path="url(#pfbeb84a91b)" d="M 285.633792 504 
L 285.633792 493.128 
" style="fill:none;stroke:#029e73;"/>
    <path clip-path="url(#pfbeb84a91b)" d="M 221.990186 504 
L 221.990186 493.128 
" style="fill:none;stroke:#029e73;"/>
    <path clip-path="url(#pfbeb84a91b)" d="M 248.582655 504 
L 248.582655 493.128 
" style="fill:none;stroke:#029e73;"/>
    <path clip-path="url(#pfbeb84a91b)" d="M 238.379043 504 
L 238.379043 493.128 
" style="fill:none;stroke:#029e73;"/>
    <path clip-path="url(#pfbeb84a91b)" d="M 196.347637 504 
L 196.347637 493.128 
" style="fill:none;stroke:#029e73;"/>
    <path clip-path="url(#pfbeb84a91b)" d="M 229.541942 504 
L 229.541942 493.128 
" style="fill:none;stroke:#029e73;"/>
   </g>
   <g id="patch_3">
    <path d="M 90 504 
L 90 69.12 
" style="fill:none;stroke:#000000;stroke-linecap:square;stroke-linejoin:miter;stroke-width:0.8;"/>
   </g>
   <g id="patch_4">
    <path d="M 90 504 
L 648 504 
" style="fill:none;stroke:#000000;stroke-linecap:square;stroke-linejoin:miter;stroke-width:0.8;"/>
   </g>
   <g id="text_8">
    <!-- Separability w.r.t TDC -->
    <g transform="translate(155.114453 61.567656)scale(0.35 -0.35)">
     <defs>
      <path d="M 59.90625 70.609375 
L 59.90625 55.171875 
Q 53.90625 57.859375 48.1875 59.21875 
Q 42.484375 60.59375 37.40625 60.59375 
Q 30.671875 60.59375 27.4375 58.734375 
Q 24.21875 56.890625 24.21875 52.984375 
Q 24.21875 50.046875 26.390625 48.40625 
Q 28.5625 46.78125 34.28125 45.609375 
L 42.28125 44 
Q 54.4375 41.546875 59.5625 36.5625 
Q 64.703125 31.59375 64.703125 22.40625 
Q 64.703125 10.359375 57.546875 4.46875 
Q 50.390625 -1.421875 35.6875 -1.421875 
Q 28.765625 -1.421875 21.78125 -0.09375 
Q 14.796875 1.21875 7.8125 3.8125 
L 7.8125 19.671875 
Q 14.796875 15.96875 21.3125 14.078125 
Q 27.828125 12.203125 33.890625 12.203125 
Q 40.046875 12.203125 43.3125 14.25 
Q 46.578125 16.3125 46.578125 20.125 
Q 46.578125 23.53125 44.359375 25.390625 
Q 42.140625 27.25 35.5 28.71875 
L 28.21875 30.328125 
Q 17.28125 32.671875 12.21875 37.796875 
Q 7.171875 42.921875 7.171875 51.609375 
Q 7.171875 62.5 14.203125 68.359375 
Q 21.234375 74.21875 34.421875 74.21875 
Q 40.4375 74.21875 46.78125 73.3125 
Q 53.125 72.40625 59.90625 70.609375 
z
" id="DejaVuSans-Bold-83"/>
      <path d="M 37.5 11.28125 
Q 43.109375 11.28125 46.0625 15.375 
Q 49.03125 19.484375 49.03125 27.296875 
Q 49.03125 35.109375 46.0625 39.203125 
Q 43.109375 43.3125 37.5 43.3125 
Q 31.890625 43.3125 28.875 39.1875 
Q 25.875 35.0625 25.875 27.296875 
Q 25.875 19.53125 28.875 15.40625 
Q 31.890625 11.28125 37.5 11.28125 
z
M 25.875 46.6875 
Q 29.5 51.46875 33.890625 53.734375 
Q 38.28125 56 44 56 
Q 54.109375 56 60.59375 47.96875 
Q 67.09375 39.9375 67.09375 27.296875 
Q 67.09375 14.65625 60.59375 6.609375 
Q 54.109375 -1.421875 44 -1.421875 
Q 38.28125 -1.421875 33.890625 0.84375 
Q 29.5 3.125 25.875 7.90625 
L 25.875 0 
L 8.40625 0 
L 8.40625 75.984375 
L 25.875 75.984375 
z
" id="DejaVuSans-Bold-98"/>
      <path d="M 8.40625 75.984375 
L 25.875 75.984375 
L 25.875 0 
L 8.40625 0 
z
" id="DejaVuSans-Bold-108"/>
      <path d="M 3.515625 54.6875 
L 20.515625 54.6875 
L 29.6875 17 
L 38.921875 54.6875 
L 53.515625 54.6875 
L 62.703125 17.390625 
L 71.921875 54.6875 
L 88.921875 54.6875 
L 74.515625 0 
L 55.421875 0 
L 46.1875 37.59375 
L 37.015625 0 
L 17.921875 0 
z
" id="DejaVuSans-Bold-119"/>
      <path d="M 10.203125 18.890625 
L 27.78125 18.890625 
L 27.78125 0 
L 10.203125 0 
z
" id="DejaVuSans-Bold-46"/>
      <path d="M 0.484375 72.90625 
L 67.671875 72.90625 
L 67.671875 58.6875 
L 43.5 58.6875 
L 43.5 0 
L 24.703125 0 
L 24.703125 58.6875 
L 0.484375 58.6875 
z
" id="DejaVuSans-Bold-84"/>
      <path d="M 67 4 
Q 61.8125 1.3125 56.203125 -0.046875 
Q 50.59375 -1.421875 44.484375 -1.421875 
Q 26.265625 -1.421875 15.625 8.765625 
Q 4.984375 18.953125 4.984375 36.375 
Q 4.984375 53.859375 15.625 64.03125 
Q 26.265625 74.21875 44.484375 74.21875 
Q 50.59375 74.21875 56.203125 72.84375 
Q 61.8125 71.484375 67 68.796875 
L 67 53.71875 
Q 61.765625 57.28125 56.6875 58.9375 
Q 51.609375 60.59375 46 60.59375 
Q 35.9375 60.59375 30.171875 54.140625 
Q 24.421875 47.703125 24.421875 36.375 
Q 24.421875 25.09375 30.171875 18.640625 
Q 35.9375 12.203125 46 12.203125 
Q 51.609375 12.203125 56.6875 13.859375 
Q 61.765625 15.53125 67 19.09375 
z
" id="DejaVuSans-Bold-67"/>
     </defs>
     <use xlink:href="#DejaVuSans-Bold-83"/>
     <use x="72.021484" xlink:href="#DejaVuSans-Bold-101"/>
     <use x="139.84375" xlink:href="#DejaVuSans-Bold-112"/>
     <use x="211.425781" xlink:href="#DejaVuSans-Bold-97"/>
     <use x="278.90625" xlink:href="#DejaVuSans-Bold-114"/>
     <use x="328.222656" xlink:href="#DejaVuSans-Bold-97"/>
     <use x="395.703125" xlink:href="#DejaVuSans-Bold-98"/>
     <use x="467.285156" xlink:href="#DejaVuSans-Bold-105"/>
     <use x="501.5625" xlink:href="#DejaVuSans-Bold-108"/>
     <use x="535.839844" xlink:href="#DejaVuSans-Bold-105"/>
     <use x="570.117188" xlink:href="#DejaVuSans-Bold-116"/>
     <use x="617.919922" xlink:href="#DejaVuSans-Bold-121"/>
     <use x="683.105469" xlink:href="#DejaVuSans-Bold-32"/>
     <use x="717.919922" xlink:href="#DejaVuSans-Bold-119"/>
     <use x="803.927734" xlink:href="#DejaVuSans-Bold-46"/>
     <use x="841.916016" xlink:href="#DejaVuSans-Bold-114"/>
     <use x="876.982422" xlink:href="#DejaVuSans-Bold-46"/>
     <use x="914.970703" xlink:href="#DejaVuSans-Bold-116"/>
     <use x="962.773438" xlink:href="#DejaVuSans-Bold-32"/>
     <use x="997.587891" xlink:href="#DejaVuSans-Bold-84"/>
     <use x="1065.800781" xlink:href="#DejaVuSans-Bold-68"/>
     <use x="1148.808594" xlink:href="#DejaVuSans-Bold-67"/>
    </g>
   </g>
  </g>
 </g>
 <defs>
  <clipPath id="pfbeb84a91b">
   <rect height="434.88" width="558" x="90" y="69.12"/>
  </clipPath>
 </defs>
</svg>
